<svg width="80" height="80" viewBox="0 0 80 80" fill="none" xmlns="http://www.w3.org/2000/svg">
<path d="M12.0922 16.0794C14.6045 12.2968 18.5074 12.2076 19.4165 12.2076C19.9521 14.8361 22.2815 16.8204 25.0659 16.8204C25.5664 16.8204 26.0439 16.7362 26.5074 16.6159V25.902C26.5074 26.3002 26.1849 26.6227 25.7866 26.6227H24.3451C23.9469 26.6227 23.6244 26.3002 23.6244 25.902V19.4152L17.8583 23.7397H19.2998C20.0958 23.7397 20.7413 24.3852 20.7413 25.1812V25.902C20.7413 26.3002 20.4188 26.6227 20.0206 26.6227H12.0922C10.5021 26.6227 9.2092 25.3299 9.2092 23.7397V12.2076C9.2092 11.4129 8.56232 10.7661 7.76769 10.7661C6.9717 10.7661 6.32617 10.1205 6.32617 9.32455C6.32617 8.52856 6.9717 7.88303 7.76769 7.88303C10.1525 7.88303 12.0922 9.82277 12.0922 12.2076V16.0794Z" fill="#F9C74F"/>
<path fill-rule="evenodd" clip-rule="evenodd" d="M23.6244 7.88303H26.5074L29.3904 5V11.0544C29.3904 13.4428 27.4543 15.3789 25.0659 15.3789C22.6775 15.3789 20.7413 13.4428 20.7413 11.0544V5L23.6244 7.88303ZM22.5432 10.7661C22.5432 11.1643 22.8658 11.4868 23.264 11.4868C23.6622 11.4868 23.9847 11.1643 23.9847 10.7661C23.9847 10.3678 23.6622 10.0453 23.264 10.0453C22.8658 10.0453 22.5432 10.3678 22.5432 10.7661ZM26.147 10.7661C26.147 11.1643 26.4696 11.4868 26.8678 11.4868C27.266 11.4868 27.5885 11.1643 27.5885 10.7661C27.5885 10.3678 27.266 10.0453 26.8678 10.0453C26.4696 10.0453 26.147 10.3678 26.147 10.7661Z" fill="#F9C74F"/>
<path fill-rule="evenodd" clip-rule="evenodd" d="M69.3492 22.2982H57.8171C56.2247 22.2982 54.9341 23.5888 54.9341 25.1812V26.6227C54.9341 27.4187 55.5796 28.0643 56.3756 28.0643H70.7908C71.5867 28.0643 72.2323 27.4187 72.2323 26.6227V25.1812C72.2323 23.5888 70.9417 22.2982 69.3492 22.2982ZM63.5832 26.6227C62.7872 26.6227 62.1417 25.9772 62.1417 25.1812C62.1417 24.3852 62.7872 23.7397 63.5832 23.7397C64.3792 23.7397 65.0247 24.3852 65.0247 25.1812C65.0247 25.9772 64.3792 26.6227 63.5832 26.6227Z" fill="#F9C74F"/>
<path fill-rule="evenodd" clip-rule="evenodd" d="M65.3851 7.88303H72.8873L73.6738 5H52.7718C51.5776 5 50.6095 5.96807 50.6095 7.16227V14.3699C50.6095 15.5641 51.5776 16.5321 52.7718 16.5321H57.4238L57.8171 20.8567H69.3492L70.1358 17.9736H65.3851C65.186 17.9736 65.0247 17.8124 65.0247 17.6133V16.8925C65.0247 16.6934 65.186 16.5321 65.3851 16.5321H70.5286L71.3151 13.6491H65.3851C65.186 13.6491 65.0247 13.4878 65.0247 13.2887V12.568C65.0247 12.3688 65.186 12.2076 65.3851 12.2076H71.7079L72.4944 9.32455H65.3851C65.186 9.32455 65.0247 9.16328 65.0247 8.96417V8.24341C65.0247 8.0443 65.186 7.88303 65.3851 7.88303ZM53.4926 13.6491V7.88303H56.6378L57.1621 13.6491H53.4926Z" fill="#F9C74F"/>
<path d="M45.8649 17.257H41.1202V12.5124C41.1202 11.9301 40.6481 11.458 40.0659 11.458H39.0115C38.4293 11.458 37.9571 11.9301 37.9571 12.5124V17.257H33.2125C32.6303 17.257 32.1581 17.7292 32.1581 18.3114V19.3657C32.1581 19.9479 32.6303 20.4201 33.2125 20.4201H37.9571V25.1647C37.9571 25.747 38.4293 26.2191 39.0115 26.2191H40.0659C40.6481 26.2191 41.1202 25.747 41.1202 25.1647V20.4201H45.8649C46.4471 20.4201 46.9193 19.9479 46.9193 19.3657V18.3114C46.9193 17.7292 46.4471 17.257 45.8649 17.257Z" fill="#F9C74F"/>
<path d="M39.5247 41.6663L33.3983 35.5399C32.9748 35.1164 32.9748 34.4317 33.3983 34.0128L34.4164 32.9947C34.8398 32.5712 35.5245 32.5712 35.9435 32.9947L40.286 37.3372L44.6286 32.9947C45.052 32.5712 45.7368 32.5712 46.1557 32.9947L47.1828 34.0083C47.6062 34.4317 47.6062 35.1164 47.1828 35.5354L41.0563 41.6618C40.6329 42.0897 39.9482 42.0897 39.5247 41.6663Z" fill="#F9C74F"/>
<path d="M41.0563 50.3154L47.1828 44.189C47.6062 43.7655 47.6062 43.0808 47.1828 42.6618L46.1647 41.6438C45.7413 41.2203 45.0565 41.2203 44.6376 41.6438L40.2905 45.9818L35.948 41.6393C35.5245 41.2158 34.8398 41.2158 34.4209 41.6393L33.3983 42.6573C32.9748 43.0808 32.9748 43.7655 33.3983 44.1845L39.5247 50.3109C39.9482 50.7388 40.6329 50.7388 41.0563 50.3154Z" fill="#F9C74F"/>
<path d="M29.1012 65.5427C29.5067 65.1372 30.0567 64.9094 30.6301 64.9094H49.3698C49.9433 64.9094 50.4933 65.1372 50.8988 65.5427C51.3043 65.9482 51.5321 66.4982 51.5321 67.0717C51.5321 67.6451 51.3043 68.1951 50.8988 68.6006C50.4933 69.0061 49.9433 69.2339 49.3698 69.2339H30.6301C30.0567 69.2339 29.5067 69.0061 29.1012 68.6006C28.6957 68.1951 28.4679 67.6451 28.4679 67.0717C28.4679 66.4982 28.6957 65.9482 29.1012 65.5427Z" fill="#F9C74F"/>
<path d="M29.3997 70.8866C29.5349 70.7514 29.7182 70.6755 29.9094 70.6755H50.0906C50.2817 70.6755 50.4651 70.7514 50.6002 70.8866C50.7354 71.0217 50.8113 71.2051 50.8113 71.3962V72.117C50.8113 72.8816 50.5076 73.6149 49.9669 74.1556C49.4263 74.6963 48.6929 75 47.9283 75H32.0716C31.307 75 30.5737 74.6963 30.033 74.1556C29.4924 73.6149 29.1886 72.8816 29.1886 72.117V71.3962C29.1886 71.2051 29.2645 71.0217 29.3997 70.8866Z" fill="#F9C74F"/>
<path fill-rule="evenodd" clip-rule="evenodd" d="M48.8905 63.4679H31.1094C29.5521 63.4679 28.648 61.4898 29.5409 60.0492C31.3509 57.1252 35.3358 54.8233 40 54.8188C44.6646 54.8233 48.6491 57.1252 50.4591 60.0497C51.351 61.4903 50.4478 63.4679 48.8905 63.4679ZM46.1665 58.544C46.0479 58.4648 45.9086 58.4226 45.766 58.4226C45.5749 58.4226 45.3916 58.4985 45.2564 58.6337C45.1212 58.7688 45.0453 58.9522 45.0453 59.1433C45.0453 59.2859 45.0876 59.4252 45.1668 59.5438C45.2459 59.6623 45.3585 59.7547 45.4902 59.8092C45.6219 59.8638 45.7668 59.878 45.9067 59.8502C46.0465 59.8224 46.1749 59.7538 46.2757 59.653C46.3765 59.5522 46.4451 59.4238 46.4729 59.2839C46.5008 59.1441 46.4865 58.9992 46.4319 58.8675C46.3774 58.7358 46.285 58.6232 46.1665 58.544ZM40.4004 57.1025C40.2819 57.0233 40.1425 56.9811 40 56.9811C39.8088 56.9811 39.6255 57.057 39.4903 57.1922C39.3552 57.3273 39.2792 57.5107 39.2792 57.7018C39.2792 57.8444 39.3215 57.9837 39.4007 58.1022C39.4799 58.2208 39.5925 58.3132 39.7242 58.3677C39.8559 58.4223 40.0008 58.4365 40.1406 58.4087C40.2804 58.3809 40.4088 58.3123 40.5096 58.2115C40.6104 58.1107 40.6791 57.9822 40.7069 57.8424C40.7347 57.7026 40.7204 57.5577 40.6659 57.426C40.6113 57.2943 40.5189 57.1817 40.4004 57.1025ZM34.6343 58.544C34.5158 58.4648 34.3765 58.4226 34.2339 58.4226C34.0428 58.4226 33.8594 58.4985 33.7243 58.6337C33.5891 58.7688 33.5132 58.9522 33.5132 59.1433C33.5132 59.2859 33.5554 59.4252 33.6346 59.5438C33.7138 59.6623 33.8264 59.7547 33.9581 59.8092C34.0898 59.8638 34.2347 59.878 34.3745 59.8502C34.5143 59.8224 34.6428 59.7538 34.7436 59.653C34.8444 59.5522 34.913 59.4238 34.9408 59.2839C34.9686 59.1441 34.9544 58.9992 34.8998 58.8675C34.8453 58.7358 34.7529 58.6232 34.6343 58.544Z" fill="#F9C74F"/>
<rect x="1" y="1" width="78" height="78" rx="4" stroke="#F9C74F" stroke-width="2"/>
</svg>
