<svg width="80" height="80" viewBox="0 0 80 80" fill="none" xmlns="http://www.w3.org/2000/svg">
<path d="M43.5216 5L48.2013 7.31946C48.2599 7.34839 48.3077 7.3905 48.3434 7.44055L48.357 7.46106L48.3683 7.48157C48.381 7.50549 48.3912 7.53064 48.3985 7.55664C48.4049 7.57825 48.4093 7.60034 48.4117 7.6228C48.4137 7.64319 48.4142 7.66382 48.4132 7.68457C48.4122 7.6991 48.4107 7.71375 48.4083 7.72827L48.3995 7.76562C48.3927 7.78955 48.3839 7.81323 48.3722 7.83618L46.9947 10.5858C46.8985 10.7781 46.6681 10.855 46.4781 10.7589L45.1178 10.093C44.9977 10.0341 44.8678 10.0447 44.7643 10.1021C44.6481 10.1664 44.565 10.2894 44.565 10.4392V16.537C44.565 16.9624 44.2213 17.306 43.796 17.306H37.6427C37.2174 17.306 36.8736 16.9624 36.8736 16.537V10.4415C36.8736 10.1555 36.5758 9.97046 36.3209 10.0955L34.9606 10.7612C34.7706 10.855 34.5397 10.7781 34.4435 10.5883L33.0689 7.83618C32.9752 7.64624 33.0519 7.41553 33.2418 7.31946L37.9215 5C38.4049 5.66821 39.4742 6.13452 40.7218 6.13452C41.9693 6.13452 43.0387 5.66821 43.5216 5Z" fill="#F9C74F"/>
<path d="M15.9488 43.1093L16.7032 43.5487C16.8683 43.6433 16.9239 43.8574 16.8282 44.022L16.482 44.6259C16.3863 44.7927 16.1764 44.8513 16.0113 44.7544L15.2569 44.3149L15.4132 44.9009C15.462 45.0857 15.3526 45.2772 15.17 45.3268L14.837 45.4169C14.6544 45.4666 14.4645 45.3561 14.4156 45.1713L13.9913 43.5757L12.5895 42.7599V44.5065L13.7814 45.7167C13.92 45.8563 13.92 46.0862 13.7814 46.226L13.5294 46.4806C13.3907 46.6204 13.1632 46.6204 13.025 46.4806L12.5851 46.0366V46.9471C12.5851 47.1454 12.4244 47.3077 12.2281 47.3077H11.5138C11.4064 47.3077 11.3097 47.259 11.2438 47.1825C11.2252 47.1608 11.2091 47.1368 11.1959 47.111C11.1881 47.0963 11.1817 47.0811 11.1764 47.0653L11.1681 47.0369L11.1622 47.0114C11.1588 46.9905 11.1568 46.969 11.1568 46.9471V46.0389L10.7169 46.4829C10.5787 46.6226 10.3512 46.6226 10.2125 46.4829L9.96055 46.2283C9.81993 46.0885 9.81993 45.8586 9.96055 45.7189L11.1588 44.5087V42.7622L9.75743 43.578L9.33311 45.1736C9.28428 45.3583 9.09434 45.4688 8.91123 45.4192L8.57872 45.329C8.39561 45.2794 8.28623 45.0879 8.33555 44.9031L8.4918 44.3171L7.73741 44.7566C7.57237 44.8513 7.36241 44.7949 7.26622 44.6282L6.92051 44.0242C6.87022 43.9349 6.86289 43.8329 6.89219 43.7423C6.91758 43.6637 6.9708 43.5938 7.04795 43.5487L7.80235 43.1069L7.22178 42.9492C7.03868 42.8997 6.9293 42.7081 6.97862 42.5233L7.06797 42.1875C7.09336 42.0917 7.15684 42.0159 7.23692 41.9719C7.25303 41.963 7.27012 41.9554 7.28721 41.9493C7.30186 41.9442 7.317 41.9401 7.33262 41.9369C7.3834 41.9265 7.43663 41.9275 7.48985 41.9419L9.06993 42.37L10.4938 41.5385L9.06993 40.7069L7.48985 41.135C7.3751 41.1661 7.25791 41.1345 7.17442 41.0612L7.16319 41.0508L7.14463 41.032C7.13536 41.0217 7.12657 41.0109 7.11875 40.9995C7.11045 40.9875 7.10264 40.9749 7.0958 40.9615L7.08702 40.9427C7.0792 40.9258 7.07286 40.908 7.06797 40.8894L6.97862 40.5536C6.9293 40.3666 7.03868 40.175 7.22422 40.1255L7.8043 39.9677L7.04991 39.5282C6.97862 39.4865 6.92735 39.4233 6.9 39.3517C6.86338 39.2571 6.86827 39.1476 6.92295 39.0527L7.26866 38.451C7.36485 38.2843 7.57432 38.2257 7.73985 38.3225L8.49424 38.762L8.33799 38.176C8.28868 37.9913 8.39805 37.7997 8.58116 37.7501L8.91368 37.66C9.00108 37.6364 9.08995 37.6492 9.16416 37.6892C9.24571 37.7329 9.30967 37.8091 9.33555 37.9056L9.75938 39.5012L11.1612 40.317V38.5704L9.9625 37.3602C9.82188 37.2206 9.82188 36.9907 9.9625 36.851L10.2169 36.5963C10.3556 36.4565 10.5831 36.4565 10.7213 36.5963L11.1612 37.0403V36.1298C11.1612 35.9315 11.3219 35.7693 11.5182 35.7693H12.2325C12.295 35.7693 12.3536 35.7856 12.4049 35.8143C12.4498 35.8395 12.4884 35.8741 12.5191 35.9155C12.5631 35.9755 12.5895 36.0497 12.5895 36.1298V37.0403L13.0314 36.5963L13.0543 36.5751L13.0763 36.5582L13.1065 36.5385L13.1363 36.5232C13.1607 36.5123 13.1856 36.5042 13.211 36.4989C13.3248 36.4753 13.4483 36.5078 13.5362 36.5963L13.7882 36.851C13.9264 36.9907 13.9264 37.2206 13.7882 37.3602L12.5895 38.5704V40.317L13.9913 39.5012L14.4156 37.9056C14.4645 37.7208 14.6544 37.6105 14.837 37.66L15.17 37.7501C15.3526 37.7997 15.462 37.9913 15.4132 38.176L15.2569 38.762L16.0113 38.3225C16.1764 38.2279 16.3863 38.2843 16.482 38.451L16.8282 39.0549C16.8941 39.1722 16.8863 39.3116 16.8185 39.4178C16.7897 39.4628 16.7501 39.5017 16.7008 39.5305L15.9464 39.97L16.527 40.1277C16.7101 40.1772 16.8194 40.3689 16.7701 40.5536L16.6808 40.8894C16.6319 41.0742 16.442 41.1847 16.2589 41.135L14.6788 40.7069L13.255 41.5385L14.6808 42.3723L16.2613 41.9441C16.4444 41.8945 16.6339 42.005 16.6832 42.1897L16.7726 42.5255C16.8214 42.7103 16.712 42.9019 16.5289 42.9514L15.9488 43.1093Z" fill="#F9C74F"/>
<path fill-rule="evenodd" clip-rule="evenodd" d="M69.8116 37.4224C69.9747 37.2534 70.1446 37.0867 70.3209 36.9231C71.9537 38.4388 73.1251 40.9149 73.1251 42.1154C73.1251 44.9832 70.8648 47.3077 68.0773 47.3077C65.2892 47.3077 63.0289 44.9832 63.0289 42.1154C63.0289 40.5009 64.6007 37.8239 66.815 35.7693C67.6778 36.5699 68.4396 37.4283 69.0538 38.2745C69.1637 38.1399 69.2779 38.0054 69.3961 37.8716C69.5294 37.7208 69.6681 37.5708 69.8116 37.4224ZM68.1417 45.1443C68.7921 45.1443 69.3937 44.9417 69.8819 44.6C70.9918 43.8236 71.2516 42.3186 70.6354 41.1425C70.5597 40.9978 70.4747 40.8468 70.3815 40.6925L69.0602 42.1997C69.0602 42.1997 66.9889 39.5548 66.8326 39.375C65.7403 40.6848 65.1925 41.4514 65.1925 42.3215C65.1925 44.0684 66.5157 45.1443 68.1417 45.1443Z" fill="#F9C74F"/>
<path fill-rule="evenodd" clip-rule="evenodd" d="M42.8702 64.6859L46.6564 64.0549C46.8214 64.0275 46.9713 64.1545 46.9713 64.3217V66.9283C46.9713 67.0955 46.8214 67.2225 46.6564 67.1951L42.8702 66.5641C42.63 66.524 42.6398 66.2834 42.6437 66.1895L42.6441 66.1659H41.7428V66.775C42.6759 67.0153 43.3653 67.8622 43.3653 68.8702V74.4591C43.3653 74.7578 43.1231 75 42.8248 75H39.5792C39.2809 75 39.0387 74.7578 39.0387 74.4591V68.8973C39.0387 67.8856 39.7247 67.0209 40.6612 66.776V66.1659L40.3253 66.1637C39.1642 66.1519 38.5118 66.1453 37.9181 67.6288C37.8072 67.9059 37.4928 68.0411 37.2154 67.9301C36.9381 67.8191 36.8028 67.5044 36.9142 67.2271C37.2447 66.4006 37.7706 65.473 38.9435 65.1788C38.6246 64.3557 39.2315 63.4615 40.1202 63.4615C40.964 63.4615 41.5704 64.2753 41.3297 65.0841H42.6441L42.6437 65.057C42.6412 64.9471 42.6363 64.7249 42.8702 64.6859ZM39.7599 64.7235C39.7599 64.9224 39.9215 65.0841 40.1202 65.0841C40.319 65.0841 40.4811 64.9224 40.4811 64.7235C40.4811 64.5248 40.319 64.363 40.1202 64.363C39.9215 64.363 39.7599 64.5248 39.7599 64.7235Z" fill="#F9C74F"/>
<path d="M66.6524 33.8875C64.1275 24.8596 57.0152 17.7473 47.9874 15.2228C48.2633 14.4303 48.4137 13.5789 48.4137 12.6923C48.4137 12.225 48.3717 11.7673 48.2921 11.323C59.2027 14.0835 67.7916 22.6725 70.5519 33.583C70.1075 33.5032 69.65 33.4615 69.1827 33.4615C68.296 33.4615 67.4449 33.6115 66.6524 33.8875Z" fill="#F9C74F"/>
<path d="M70.5519 48.7246C70.1075 48.8044 69.65 48.8462 69.1827 48.8462C68.296 48.8462 67.4449 48.6962 66.6524 48.4203C64.1275 57.4481 57.0152 64.5604 47.9874 67.085C48.2633 67.8774 48.4137 68.7289 48.4137 69.6154C48.4137 70.0828 48.3717 70.5403 48.2921 70.9847C59.2027 68.2242 67.7916 59.6353 70.5519 48.7246Z" fill="#F9C74F"/>
<path d="M33.1505 70.9847C33.0704 70.5403 33.0289 70.0828 33.0289 69.6154C33.0289 68.7289 33.1788 67.8774 33.4547 67.085C24.4269 64.5604 17.3146 57.4481 14.7901 48.4203C13.9977 48.6962 13.1461 48.8462 12.2594 48.8462C12.0172 48.8462 11.7774 48.835 11.5411 48.8131C11.3214 48.7927 11.1041 48.7631 10.8902 48.7246C13.651 59.6353 22.2398 68.2242 33.1505 70.9847Z" fill="#F9C74F"/>
<path d="M11.4869 33.4999C11.7408 33.4745 11.9986 33.4615 12.2594 33.4615C13.1461 33.4615 13.9977 33.6115 14.7901 33.8875C17.3146 24.8596 24.4269 17.7473 33.4547 15.2228C33.1788 14.4303 33.0289 13.5789 33.0289 12.6923C33.0289 12.225 33.0704 11.7673 33.1505 11.323C22.2398 14.0835 13.651 22.6725 10.8902 33.583C11.0865 33.5477 11.2857 33.5199 11.4869 33.4999Z" fill="#F9C74F"/>
<path fill-rule="evenodd" clip-rule="evenodd" d="M53.211 21.4066C54.1617 22.0974 54.3727 23.4283 53.6817 24.3793C53.1373 25.129 52.1944 25.4187 51.3541 25.1692L47.7555 30.1224C48.7682 30.9565 49.6241 31.9222 50.3141 32.9779L55.6471 30.0217C55.5016 29.1571 55.9044 28.257 56.7149 27.8076C57.7428 27.2378 59.0382 27.6093 59.608 28.6372C60.1778 29.6653 59.8063 30.9606 58.7784 31.5304C57.9679 31.9796 56.9913 31.8439 56.3346 31.2626L51.0231 34.2072C52.9718 38.0701 52.9015 42.819 50.4606 46.7283L50.4044 46.8215L50.3058 46.9703L50.274 47.0188C46.4244 52.835 38.6319 54.4756 32.7721 50.7451L28.2101 57.0242C28.2101 57.0242 26.9068 58.4155 26.524 58.1376C26.1417 57.8596 27.0621 56.1901 27.0621 56.1901L31.6188 49.9189C30.4298 48.9642 29.4518 47.8302 28.6979 46.5822L21.8971 50.3518C21.8971 50.3518 20.1275 51.0621 19.8985 50.6486C19.669 50.2349 21.2091 49.111 21.2091 49.111L28.0328 45.3285C26.2428 41.4448 26.4439 36.7512 28.9776 32.923C32.8565 27.0627 40.7379 25.4417 46.6119 29.2822L50.2062 24.3352C49.7091 23.613 49.6935 22.6272 50.2384 21.8774C50.9293 20.9265 52.2599 20.7157 53.211 21.4066ZM28.9449 37.8961C29.0978 37.1073 29.3404 36.3279 29.6749 35.5726C32.4825 35.1941 35.6778 35.1633 37.4293 35.1823C37.6593 35.4772 37.8888 35.7778 38.1148 36.0815C38.3092 36.343 38.5006 36.6069 38.6871 36.8715C36.2711 36.8806 32.5191 37.0128 29.8282 37.6588C29.5411 37.7278 29.2457 37.8075 28.9449 37.8961ZM33.7154 30.8358C34.1422 31.2946 34.9723 32.2042 35.9303 33.339C34.5294 33.3442 32.6764 33.3906 30.8414 33.5549C31.6466 32.4507 32.6256 31.54 33.7154 30.8358ZM41.0773 36.9038L41.131 37.1287C41.44 37.6108 41.7237 38.0873 41.9684 38.5475C43.8785 42.1396 45.2877 48.2308 45.4908 49.1351C45.7521 48.968 46.0074 48.7892 46.255 48.5986C45.923 47.1597 44.5743 41.6089 42.7867 38.2468C41.0318 34.9469 37.2926 30.8179 36.2022 29.6455C36.0216 29.7053 35.8424 29.7699 35.6651 29.8391C35.5724 29.8752 35.4801 29.9125 35.3888 29.9512C36.3077 30.9393 39.0787 33.9962 40.983 36.9005L41.0773 36.9038ZM30.2701 39.4982C33.2633 38.7797 37.5704 38.6968 39.8902 38.7122C40.0353 38.9565 40.172 39.1984 40.2984 39.4355C40.3761 39.5817 40.4527 39.7318 40.5284 39.8856C40.6534 40.1385 40.776 40.4014 40.8961 40.6715C38.5743 40.6567 34.274 40.74 31.2838 41.4579C30.5528 41.6333 29.7687 41.8785 28.9718 42.1639C28.8209 41.432 28.7452 40.6843 28.7472 39.934C28.9898 39.855 29.2301 39.7808 29.4664 39.7122C29.7398 39.6328 30.0084 39.561 30.2701 39.4982ZM31.7257 43.2972C34.8497 42.5472 39.4054 42.49 41.6388 42.5137C41.8956 43.2091 42.1354 43.9187 42.3551 44.6113C40.2862 44.5786 35.3858 44.5977 32.0841 45.3904C31.8478 45.4471 31.6065 45.5111 31.3605 45.5812C31.2154 45.6226 31.0689 45.6661 30.9215 45.7117C30.7735 45.7574 30.6241 45.8052 30.4737 45.8546C30.089 45.256 29.7667 44.6239 29.5089 43.9692C29.8678 43.8419 30.2237 43.7231 30.5733 43.6154C30.9679 43.4939 31.3536 43.3866 31.7257 43.2972ZM32.5255 47.2297C35.8878 46.4227 40.9068 46.4177 42.9064 46.4528C43.0255 46.8711 43.1344 47.2697 43.232 47.6398C41.775 47.6019 36.3605 47.5248 32.6695 48.3346C32.3316 48.0543 32.0147 47.757 31.7189 47.4445C31.9933 47.3649 32.2628 47.2928 32.5255 47.2297ZM35.0519 49.8416C38.4996 49.3861 42.503 49.4482 43.6949 49.4799C43.7511 49.718 43.7926 49.8987 43.8175 50.0095C41.0616 51.1572 37.8766 51.1549 35.0519 49.8416ZM45.2745 37.058C46.7462 39.8259 47.921 44.0773 48.4752 46.2964L48.4034 46.3955L48.2833 46.5573L48.1852 46.6837L48.1178 46.7695C48.0123 46.9014 47.9049 47.0302 47.7945 47.156C47.3165 45.1737 46.0641 40.3816 44.4566 37.3586C42.8727 34.379 39.67 30.7239 38.2608 29.1792C38.5982 29.1364 38.9376 29.109 39.2784 29.0979C40.7711 30.7485 43.7613 34.2117 45.2745 37.058ZM46.9449 36.1699C45.7213 33.8691 43.5333 31.1655 41.9513 29.3418C42.2306 29.403 42.5084 29.4753 42.7848 29.5592L42.631 29.6323C42.631 29.6323 46.5255 33.4031 47.9606 36.4111C49.0294 38.6522 49.568 42.2212 49.7731 43.895L49.7599 43.9298C49.129 41.611 48.1339 38.4061 46.9449 36.1699Z" fill="#F9C74F"/>
<rect x="1" y="1" width="78" height="78" rx="4" stroke="#F9C74F" stroke-width="2"/>
</svg>
