<svg width="80" height="80" viewBox="0 0 80 80" fill="none" xmlns="http://www.w3.org/2000/svg">
<path d="M21.426 39.7173L11.8835 49.2598C9.00366 52.1396 6.39012 59.3078 9.00653 62.3959L54.4806 16.9218L48.2358 5.54001C47.6037 4.48549 46.1493 4.30681 45.2801 5.17598L41.9412 8.51488C41.5212 8.93486 41.3225 9.52933 41.4068 10.118L42.6091 18.5341L34.021 27.1223L23.7863 8.70024C23.1768 7.60314 21.6873 7.3944 20.7998 8.28194L15.3309 13.7508C15.0953 13.9863 14.9262 14.28 14.8405 14.602C14.7549 14.9239 14.7559 15.2628 14.8433 15.5843L21.426 39.7173Z" fill="#F9C74F"/>
<path d="M8.9675 74.4989C7.79593 73.3274 7.79593 71.4279 8.9675 70.2563L66.9503 12.2735C68.1218 11.102 70.0213 11.102 71.1929 12.2735C72.3645 13.4451 72.3645 15.3446 71.1929 16.5162L13.2101 74.4989C12.0386 75.6705 10.1391 75.6705 8.9675 74.4989Z" fill="#F9C74F"/>
<path d="M63.8434 36.9521C63.7651 36.5838 64.0005 36.2213 64.3689 36.143C64.7372 36.0647 65.0996 36.3001 65.1779 36.6685C65.2563 37.0369 65.0209 37.3993 64.6525 37.4776C64.6164 37.4853 64.579 37.4874 64.5431 37.4892L64.1077 40.383L58.7696 41.5177L57.1948 39.0511C57.1612 39.0641 57.1263 39.0773 57.0901 39.085C56.7218 39.1633 56.3593 38.928 56.281 38.5596C56.2027 38.1912 56.4395 37.8285 56.8079 37.7502C57.1763 37.6719 57.5387 37.9072 57.617 38.2756C57.6379 38.3743 57.6341 38.4725 57.6143 38.5639L58.7476 38.9535C58.9875 39.0362 59.2502 38.9049 59.3278 38.6617L60.0394 36.4385C59.8646 36.3478 59.7283 36.185 59.684 35.9765C59.6057 35.6081 59.8411 35.2457 60.2094 35.1674C60.5778 35.0891 60.9402 35.3244 61.0185 35.6928C61.0629 35.9013 61.0046 36.1055 60.8818 36.2595L62.4361 38.001C62.606 38.1916 62.898 38.205 63.0849 38.0316L63.9631 37.2144C63.9061 37.1379 63.8644 37.0508 63.8434 36.9521Z" fill="#F9C74F"/>
<path d="M58.6417 42.0098L64.4247 40.7806C64.547 40.7546 64.6684 40.8334 64.6944 40.9557L64.789 41.4006C64.815 41.5229 64.7361 41.6443 64.6138 41.6703L58.8308 42.8995C58.7085 42.9255 58.5871 42.8467 58.5611 42.7244L58.4666 42.2795C58.4406 42.1572 58.5194 42.0358 58.6417 42.0098Z" fill="#F9C74F"/>
<path d="M62.2423 48.5478C63.9378 48.5478 65.3122 47.1733 65.3122 45.4779C65.3122 43.7824 63.9378 42.4079 62.2423 42.4079C60.5468 42.4079 59.1724 43.7824 59.1724 45.4779C59.1724 47.1733 60.5468 48.5478 62.2423 48.5478Z" fill="#F9C74F"/>
<path d="M51.1708 64.92L52.1174 62.7122C52.6246 63.8148 53.4394 64.7831 54.5471 65.4374L55.2295 65.8403L54.6673 67.1527C54.1857 68.2815 53.0774 69.0132 51.8462 69.0132H46.8928C45.7627 69.0132 44.8462 68.0967 44.8462 66.9666C44.8462 65.8365 45.7627 64.92 46.8928 64.92H51.1708Z" fill="#F9C74F"/>
<path d="M69.4055 56.7335H66.5895L64.9227 53.3279C64.1233 51.6938 62.6555 50.4991 60.9715 50.0699L56.4255 48.7179C54.6155 48.283 52.7307 48.6827 51.2553 49.8141L48.7181 51.759C47.8208 52.4465 47.6507 53.7308 48.3395 54.6281C49.0283 55.5254 50.3119 55.6936 51.2086 55.0067L53.747 53.0618C54.2375 52.6851 54.8624 52.5502 55.3632 52.6691L56.3033 52.9486L53.9075 58.5378C53.1004 60.4232 53.8238 62.6316 55.5896 63.6741L61.0246 66.8828L59.2677 72.4937C58.93 73.572 59.5306 74.72 60.6089 75.0577C60.8129 75.1216 61.0188 75.1523 61.2216 75.1523C62.092 75.1523 62.8992 74.5914 63.1735 73.7165L65.1971 67.2531C65.5751 65.9247 65.0123 64.4978 63.8131 63.7745L59.8964 61.4631L61.8989 56.4566L63.1953 59.1063C63.7069 60.1514 64.7891 60.8261 65.9524 60.8261H69.4055C70.5356 60.8261 71.4521 59.9096 71.4521 58.7795C71.4521 57.6494 70.5356 56.7335 69.4055 56.7335Z" fill="#F9C74F"/>
<rect x="1" y="1" width="78" height="78" rx="4" stroke="#F9C74F" stroke-width="2"/>
</svg>
