<svg width="80" height="80" viewBox="0 0 80 80" fill="none" xmlns="http://www.w3.org/2000/svg">
<path d="M74.8 47.1999H73.6V40.4799C73.6 39.1547 72.5252 38.0799 71.2 38.0799H67.6L59.4415 27.8814C58.9917 27.3193 58.4212 26.8656 57.7724 26.5538C57.1236 26.2419 56.4129 26.08 55.693 26.0799H47.2C45.8747 26.0799 44.8 27.1547 44.8 28.4799V38.0799H8.8C7.47475 38.0799 6.4 39.1547 6.4 40.4799V47.1999H5.2C4.537 47.1999 4 47.7369 4 48.3999V50.7999C4 51.4629 4.537 51.9999 5.2 51.9999H8.92075C8.86375 52.3952 8.8 52.7889 8.8 53.1999C8.8 57.8394 12.5605 61.5999 17.2 61.5999C21.8395 61.5999 25.6 57.8394 25.6 53.1999C25.6 52.7889 25.5363 52.3952 25.4792 51.9999H54.5215C54.4645 52.3952 54.4007 52.7889 54.4007 53.1999C54.4007 57.8394 58.1613 61.5999 62.8008 61.5999C67.4403 61.5999 71.2007 57.8394 71.2007 53.1999C71.2007 52.7889 71.137 52.3952 71.08 51.9999H74.8C75.463 51.9999 76 51.4629 76 50.7999V48.3999C76 47.7369 75.463 47.1999 74.8 47.1999ZM49.6 30.8799H55.693L61.453 38.0799H49.6V30.8799ZM17.2 56.7999C15.2148 56.7999 13.6 55.1852 13.6 53.1999C13.6 51.2147 15.2148 49.5999 17.2 49.5999C19.1852 49.5999 20.8 51.2147 20.8 53.1999C20.8 55.1852 19.1852 56.7999 17.2 56.7999ZM62.8 56.7999C60.8148 56.7999 59.2 55.1852 59.2 53.1999C59.2 51.2147 60.8148 49.5999 62.8 49.5999C64.7852 49.5999 66.4 51.2147 66.4 53.1999C66.4 55.1852 64.7852 56.7999 62.8 56.7999Z" fill="#F9C74F"/>
<path fill-rule="evenodd" clip-rule="evenodd" d="M39.4 21.3999H40.9C41.7283 21.3999 42.4 22.0716 42.4 22.8999V34.8999C42.4 35.7282 41.7283 36.3999 40.9 36.3999H9.34C8.51172 36.3999 7.84 35.7282 7.84 34.8999V22.8999C7.84 22.0716 8.51172 21.3999 9.34 21.3999H10.84V19.1499C10.84 18.7355 11.1756 18.3999 11.59 18.3999H16.09C16.5044 18.3999 16.84 18.7355 16.84 19.1499V21.3999H33.4V19.1499C33.4 18.7355 33.7356 18.3999 34.15 18.3999H38.65C39.0644 18.3999 39.4 18.7355 39.4 19.1499V21.3999ZM16.465 28.1499C16.6722 28.1499 16.84 27.9821 16.84 27.7749V27.0249C16.84 26.8177 16.6722 26.6499 16.465 26.6499H11.215C11.0078 26.6499 10.84 26.8177 10.84 27.0249V27.7749C10.84 27.9821 11.0078 28.1499 11.215 28.1499H16.465ZM39.025 28.1499C39.2322 28.1499 39.4 27.9821 39.4 27.7749V27.0249C39.4 26.8177 39.2322 26.6499 39.025 26.6499H37.15V24.7749C37.15 24.5677 36.9822 24.3999 36.775 24.3999H36.025C35.8178 24.3999 35.65 24.5677 35.65 24.7749V26.6499H33.775C33.5678 26.6499 33.4 26.8177 33.4 27.0249V27.7749C33.4 27.9821 33.5678 28.1499 33.775 28.1499H35.65V30.0249C35.65 30.2321 35.8178 30.3999 36.025 30.3999H36.775C36.9822 30.3999 37.15 30.2321 37.15 30.0249V28.1499H39.025ZM25.6264 27.1599H27.7902C28.1371 27.1599 28.3527 27.5368 28.1783 27.8349L24.8783 33.5349C24.7958 33.6774 24.6458 33.7599 24.4883 33.7599C24.2014 33.7599 23.9839 33.4918 24.0514 33.2068L24.9158 29.5599H22.6902C22.4183 29.5599 22.2083 29.3199 22.2439 29.0499L22.8439 24.5499C22.8739 24.3268 23.0652 24.1599 23.2902 24.1599H25.9902C26.2846 24.1599 26.5002 24.4412 26.4252 24.7262L25.6264 27.1599Z" fill="#F9C74F"/>
</svg>
