<svg width="80" height="80" viewBox="0 0 80 80" fill="none" xmlns="http://www.w3.org/2000/svg">
<path d="M45.6909 22.1039H40.2468V27.5481C43.1907 27.4101 45.553 25.0479 45.6909 22.1039Z" fill="#F9C74F"/>
<path d="M39.7017 27.5481V22.1039H34.2574C34.3955 25.0479 36.7578 27.4101 39.7017 27.5481Z" fill="#F9C74F"/>
<path d="M45.6909 21.5589C45.553 18.615 43.1907 16.2527 40.2468 16.1147V21.5589H45.6909Z" fill="#F9C74F"/>
<path d="M39.7017 16.1147C36.7578 16.2527 34.3955 18.615 34.2574 21.5589H39.7017V16.1147Z" fill="#F9C74F"/>
<path fill-rule="evenodd" clip-rule="evenodd" d="M40.8275 5.3806C40.3925 4.87313 39.6072 4.87313 39.1722 5.3806L18.413 29.5959C17.8069 30.303 18.3093 31.3955 19.2407 31.3955H60.759C61.6904 31.3955 62.1929 30.303 61.5867 29.5959L55.534 22.5356V11.2284C55.534 10.9274 55.29 10.6834 54.989 10.6834H52.8087C52.5077 10.6834 52.2637 10.9274 52.2637 11.2284V18.7208L40.8275 5.3806ZM46.2681 21.857C46.2681 25.3188 43.4616 28.1252 39.9999 28.1252C36.5381 28.1252 33.7318 25.3188 33.7318 21.857C33.7318 18.3952 36.5381 15.5889 39.9999 15.5889C43.4616 15.5889 46.2681 18.3952 46.2681 21.857Z" fill="#F9C74F"/>
<path d="M28.8263 46.5208C28.8263 45.8949 28.8952 45.297 29.0204 44.7494H28.2812V49.3824H29.3711C29.0289 48.5853 28.8263 47.5945 28.8263 46.5208Z" fill="#F9C74F"/>
<path d="M29.6443 49.9274H28.2812V54.5604H30.8151C30.7623 54.2577 30.734 53.9377 30.734 53.6065C30.734 52.7014 30.9458 51.8787 31.2913 51.2686C30.6524 51.1627 30.0777 50.6707 29.6443 49.9274Z" fill="#F9C74F"/>
<path d="M27.7362 54.5604V49.9274H26.3731C25.9397 50.6707 25.365 51.1627 24.7261 51.2686C25.0716 51.8787 25.2834 52.7014 25.2834 53.6065L25.2827 53.6917C25.2821 53.7351 25.281 53.7782 25.2794 53.8212C25.278 53.8603 25.2761 53.8993 25.2738 53.9381C25.2615 54.1519 25.2372 54.36 25.2022 54.5604H27.7362Z" fill="#F9C74F"/>
<path d="M26.6463 49.3824C26.9884 48.5853 27.1911 47.5945 27.1911 46.5208C27.1911 45.8949 27.1222 45.297 26.997 44.7494H27.7362V49.3824H26.6463Z" fill="#F9C74F"/>
<path d="M35.7916 45.2252C35.7566 45.2711 35.7357 45.3284 35.7357 45.3906V52.7649C35.7357 52.9154 35.8577 53.0374 36.0082 53.0374H43.9916C44.1421 53.0374 44.2642 52.9154 44.2642 52.7649V45.3906C44.2642 45.2401 44.1421 45.1181 43.9916 45.1181H36.0082C35.9833 45.1181 35.9592 45.1214 35.9364 45.1277C35.8779 45.1436 35.8274 45.1784 35.7916 45.2252Z" fill="#F9C74F"/>
<path d="M36.6493 53.9192C36.6493 53.7687 36.7714 53.6466 36.9219 53.6466H43.0778C43.2283 53.6466 43.3504 53.7687 43.3504 53.9192V55.2017C43.3504 55.3522 43.2283 55.4742 43.0778 55.4742H36.9219C36.7714 55.4742 36.6493 55.3522 36.6493 55.2017V53.9192Z" fill="#F9C74F"/>
<path d="M44.2642 55.1696C44.6006 55.1696 44.8734 54.8968 44.8734 54.5604C44.8734 54.2239 44.6006 53.9512 44.2642 53.9512C43.9276 53.9512 43.655 54.2239 43.655 54.5604C43.655 54.8968 43.9276 55.1696 44.2642 55.1696Z" fill="#F9C74F"/>
<path d="M36.0082 56.0833C35.8577 56.0833 35.7357 56.2053 35.7357 56.3558V63.7301C35.7357 63.8807 35.8577 64.0027 36.0082 64.0027H43.9916C44.1421 64.0027 44.2642 63.8807 44.2642 63.7301V56.3558C44.2642 56.2053 44.1421 56.0833 43.9916 56.0833H36.0082Z" fill="#F9C74F"/>
<path d="M53.0029 44.7494C52.8777 45.297 52.8087 45.8949 52.8087 46.5208C52.8087 47.5945 53.0114 48.5853 53.3535 49.3824H52.2637V44.7494H53.0029Z" fill="#F9C74F"/>
<path d="M52.2637 49.9274H53.6267C54.0601 50.6707 54.6349 51.1627 55.2737 51.2686C54.9283 51.8787 54.7164 52.7014 54.7164 53.6065C54.7164 53.9377 54.7448 54.2577 54.7976 54.5604H52.2637V49.9274Z" fill="#F9C74F"/>
<path d="M51.7186 49.9274V54.5604H49.1847C49.2197 54.36 49.2439 54.1519 49.2563 53.9381C49.2586 53.8993 49.2604 53.8603 49.2619 53.8212C49.2646 53.7502 49.2659 53.6786 49.2659 53.6065C49.2659 52.7014 49.054 51.8787 48.7086 51.2686C49.3475 51.1627 49.9222 50.6707 50.3556 49.9274H51.7186Z" fill="#F9C74F"/>
<path d="M51.1736 46.5208C51.1736 47.5945 50.9709 48.5853 50.6288 49.3824H51.7186V44.7494H50.9794C51.1046 45.297 51.1736 45.8949 51.1736 46.5208Z" fill="#F9C74F"/>
<path fill-rule="evenodd" clip-rule="evenodd" d="M20.923 33.3032C20.923 32.7012 21.4111 32.2131 22.0131 32.2131H57.9868C58.5888 32.2131 59.0769 32.7012 59.0769 33.3032V69.2769C59.0769 69.879 58.5888 70.367 57.9868 70.367H57.4417C57.4417 67.3568 55.0015 64.9165 51.9912 64.9165C48.9808 64.9165 46.5406 67.3568 46.5406 70.367H33.4593C33.4593 67.3568 31.019 64.9165 28.0087 64.9165C24.9984 64.9165 22.5581 67.3568 22.5581 70.367H22.0131C21.4111 70.367 20.923 69.879 20.923 69.2769V33.3032ZM22.5581 44.7494C22.5581 44.4483 22.8022 44.2043 23.1032 44.2043H32.9142C33.2152 44.2043 33.4593 44.4483 33.4593 44.7494V54.5604C33.4593 54.8614 33.2152 55.1054 32.9142 55.1054H23.1032C22.8022 55.1054 22.5581 54.8614 22.5581 54.5604V44.7494ZM34.8219 44.7494C34.8219 44.4483 35.0659 44.2043 35.367 44.2043H44.6329C44.9339 44.2043 45.178 44.4483 45.178 44.7494V64.3714C45.178 64.6724 44.9339 64.9165 44.6329 64.9165H35.367C35.0659 64.9165 34.8219 64.6724 34.8219 64.3714V44.7494ZM47.0857 44.2043C46.7847 44.2043 46.5406 44.4483 46.5406 44.7494V54.5604C46.5406 54.8614 46.7847 55.1054 47.0857 55.1054H56.8967C57.1977 55.1054 57.4417 54.8614 57.4417 54.5604V44.7494C57.4417 44.4483 57.1977 44.2043 56.8967 44.2043H47.0857Z" fill="#F9C74F"/>
<path d="M32.6417 70.367C32.6417 72.9257 30.5674 75 28.0087 75C25.45 75 23.3757 72.9257 23.3757 70.367C23.3757 67.8083 25.45 65.734 28.0087 65.734C30.5674 65.734 32.6417 67.8083 32.6417 70.367Z" fill="#F9C74F"/>
<path d="M51.9912 75C54.5498 75 56.6241 72.9257 56.6241 70.367C56.6241 67.8083 54.5498 65.734 51.9912 65.734C49.4325 65.734 47.3582 67.8083 47.3582 70.367C47.3582 72.9257 49.4325 75 51.9912 75Z" fill="#F9C74F"/>
<path d="M53.8048 5.86963C53.9118 5.70043 54.1585 5.70043 54.2655 5.86963L56.4848 9.37949C56.5997 9.56094 56.4692 9.79767 56.2546 9.79767H51.8156C51.601 9.79767 51.4706 9.56094 51.5854 9.37949L53.8048 5.86963Z" fill="#F9C74F"/>
</svg>
