<svg width="80" height="80" viewBox="0 0 80 80" fill="none" xmlns="http://www.w3.org/2000/svg">
<path fill-rule="evenodd" clip-rule="evenodd" d="M23.6917 14.5758V11.5141H24.3188L24.703 12.2824C25.1931 13.2665 26.3574 13.7094 27.3806 13.3018C28.1841 12.9803 28.7095 12.2041 28.7095 11.3377V8.37789C28.7095 7.62911 28.3801 6.95482 27.8589 6.49615H28.0821C28.4272 6.49615 28.7095 6.21389 28.7095 5.86892C28.7095 5.52396 28.4272 5.2417 28.0821 5.2417H23.6917C20.9198 5.2417 18.6736 7.48798 18.6736 10.2596H11.9623C10.7586 10.2596 9.70423 10.8986 9.12014 11.859C7.43045 12.0825 6.12887 13.5291 6.12887 15.2776V17.4729C6.12887 17.9943 6.54839 18.4138 7.06963 18.4138C7.59115 18.4138 8.01068 17.9943 8.01068 17.4729V15.2776C8.01068 14.7522 8.26923 14.2897 8.66533 14.0035C8.7279 14.5131 8.9123 14.9992 9.19842 15.4304L10.304 17.0926C10.6293 17.5787 10.5549 18.2177 10.2569 18.7234C9.60996 19.8211 9.44926 21.1618 9.86493 22.4046L10.551 24.4587C10.7233 24.9723 11.2018 25.3173 11.7426 25.3173H13.0638C13.9185 25.3173 14.526 24.4784 14.2556 23.6669L13.44 21.2167C13.3579 20.9658 13.4204 20.6914 13.6087 20.5032L14.1065 20.0054C14.6242 19.4879 14.9141 18.7861 14.9141 18.057C14.9141 17.9668 14.9103 17.8767 14.9023 17.7865L18.1954 18.7274C18.3561 18.7744 18.5168 18.8096 18.6775 18.8371V24.0589C18.6775 24.7528 19.2381 25.3134 19.9319 25.3134H21.1867C21.8805 25.3134 22.4411 24.7528 22.4411 24.0589V17.6179C23.1936 16.8653 23.676 15.8264 23.6956 14.6503V14.5758H23.6917ZM25.5732 7.75067C25.7397 7.75067 25.8993 7.81675 26.0167 7.93438C26.1344 8.05201 26.2006 8.21154 26.2006 8.37789C26.2006 8.54424 26.1344 8.70377 26.0167 8.8214C25.9765 8.86164 25.9313 8.89589 25.8828 8.92352C25.8511 8.94144 25.818 8.95653 25.7838 8.96873C25.737 8.98541 25.6882 8.9965 25.6383 9.00167C25.6168 9.00394 25.595 9.00511 25.5732 9.00511C25.407 9.00511 25.2474 8.93903 25.1297 8.8214C25.012 8.70377 24.9462 8.54424 24.9462 8.37789C24.9462 8.30533 24.9586 8.23407 24.9825 8.16702C25.0134 8.08033 25.0633 8.00067 25.1297 7.93438C25.1612 7.90296 25.1956 7.87526 25.2323 7.85148C25.2733 7.82495 25.3172 7.80331 25.3629 7.78698C25.4299 7.76314 25.501 7.75067 25.5732 7.75067ZM68.853 14.5758V11.5141H69.4801L69.8643 12.2824C70.3544 13.2665 71.5187 13.7094 72.5419 13.3018C73.3454 12.9803 73.8708 12.2041 73.8708 11.3377V8.37789C73.8708 7.62911 73.5414 6.95482 73.0201 6.49615H73.2434C73.5885 6.49615 73.8708 6.21389 73.8708 5.86892C73.8708 5.52396 73.5885 5.2417 73.2434 5.2417H68.853C66.0811 5.2417 63.8349 7.48798 63.8349 10.2596H57.1236C55.9198 10.2596 54.8655 10.8986 54.2814 11.859C52.5917 12.0825 51.2901 13.5291 51.2901 15.2776V17.4729C51.2901 17.9943 51.7097 18.4138 52.2309 18.4138C52.7524 18.4138 53.1719 17.9943 53.1719 17.4729V15.2776C53.1719 14.7522 53.4305 14.2897 53.8266 14.0035C53.8892 14.5131 54.0736 14.9992 54.3597 15.4304L55.4653 17.0926C55.7905 17.5787 55.7161 18.2177 55.4182 18.7234C54.7712 19.8211 54.6105 21.1618 55.0262 22.4046L55.7123 24.4587C55.8845 24.9723 56.3631 25.3173 56.9039 25.3173H58.225C59.0798 25.3173 59.6873 24.4784 59.4169 23.6669L58.6013 21.2167C58.5191 20.9658 58.5817 20.6914 58.77 20.5032L59.2678 20.0054C59.7854 19.4879 60.0754 18.7861 60.0754 18.057C60.0754 17.9668 60.0716 17.8767 60.0636 17.7865L63.3567 18.7274C63.5174 18.7744 63.6781 18.8096 63.8388 18.8371V24.0589C63.8388 24.7528 64.3994 25.3134 65.0932 25.3134H66.3479C67.0417 25.3134 67.6024 24.7528 67.6024 24.0589V17.6179C68.3549 16.8653 68.8373 15.8264 68.8568 14.6503V14.5758H68.853ZM70.9512 7.78919C71.0358 7.82027 71.1132 7.86947 71.178 7.93438C71.2957 8.05201 71.3619 8.21154 71.3619 8.37789C71.3619 8.54424 71.2957 8.70377 71.178 8.8214C71.1086 8.89107 71.0242 8.94268 70.9321 8.97321C70.869 8.99416 70.8023 9.00511 70.7345 9.00511C70.6333 9.00511 70.5344 8.98058 70.4462 8.93489C70.3894 8.90554 70.337 8.86743 70.291 8.8214C70.1733 8.70377 70.1074 8.54424 70.1074 8.37789C70.1074 8.21154 70.1733 8.05201 70.291 7.93438C70.4087 7.81675 70.5683 7.75067 70.7345 7.75067C70.8092 7.75067 70.8825 7.76397 70.9512 7.78919ZM38.3063 22.1772C38.3063 23.1125 39.0646 23.8707 39.9998 23.8707C40.9351 23.8707 41.6934 23.1125 41.6934 22.1772V17.0965H46.774C47.7093 17.0965 48.4676 16.3383 48.4676 15.403C48.4676 14.4677 47.7093 13.7094 46.774 13.7094H41.6934V8.62879C41.6934 7.69347 40.9351 6.93525 39.9998 6.93525C39.0646 6.93525 38.3063 7.69347 38.3063 8.62879V13.7094H33.2256C32.2904 13.7094 31.5321 14.4677 31.5321 15.403C31.5321 16.3383 32.2904 17.0965 33.2256 17.0965H38.3063V22.1772ZM30.4031 29.5159C29.4678 29.5159 28.7096 30.2741 28.7096 31.2094C28.7096 32.1447 29.4678 32.9029 30.4031 32.9029H49.5967C50.532 32.9029 51.2902 32.1447 51.2902 31.2094C51.2902 30.2741 50.532 29.5159 49.5967 29.5159H30.4031ZM30.4031 36.8546C29.4678 36.8546 28.7096 37.6128 28.7096 38.5481C28.7096 39.4834 29.4678 40.2417 30.4031 40.2417H49.5967C50.532 40.2417 51.2902 39.4834 51.2902 38.5481C51.2902 37.6128 50.532 36.8546 49.5967 36.8546H30.4031ZM32.426 67.2742L25.5895 66.8872C25.7968 67.4929 25.9093 68.1429 25.9093 68.8194C25.9093 72.0993 23.2637 74.7582 20.0002 74.7582C16.7366 74.7582 14.091 72.0993 14.091 68.8194C14.091 67.9986 14.2568 67.2167 14.5562 66.5057C12.6242 66.4692 10.0975 66.4173 6.8182 66.3437V66.5763C6.8182 67.0784 6.41115 67.4854 5.9091 67.4854C5.40705 67.4854 5 67.0784 5 66.5763V65.6672C5 65.1651 5.40705 64.7581 5.9091 64.7581C6.0203 64.7581 6.12683 64.778 6.22516 64.8145C6.34035 64.8573 6.44466 64.9227 6.53233 65.0054C6.56873 64.915 6.60757 64.8289 6.64486 64.7502C6.68037 64.6751 6.71455 64.6067 6.74407 64.5476C6.76094 64.5138 6.82975 64.4083 6.94227 64.2416C6.60358 64.1094 6.36365 63.78 6.36365 63.3945V62.4853C6.36365 61.9832 6.77071 61.5762 7.27275 61.5762C7.76526 61.5762 8.16632 61.9679 8.18141 62.4567C10.9029 58.5768 16.5273 50.6839 16.5273 50.6839L16.5393 50.6883C19.6988 47.2739 24.017 45.4557 27.8807 45.002C30.102 44.7412 30.8155 44.7504 31.9861 44.7656C32.1559 44.7678 32.3354 44.7702 32.5305 44.7718L32.8808 44.7738L33.0335 44.7738L33.2206 44.7725C33.362 44.7712 33.5071 44.7691 33.6565 44.7669L33.662 44.7668L33.6733 44.7666L33.6764 44.7666C35.3959 44.7412 37.7337 44.7068 42.4263 45.6839C46.3548 46.5018 50.6369 50.6999 52.7256 54.6263C56.8017 54.0085 62.6696 54.5815 65.6082 55.0013C68.0012 55.3432 70.3373 56.3835 72.0718 57.8738C71.2348 58.2233 70.4553 58.7634 70.4553 59.3035C70.4553 60.2126 72.5008 60.8944 73.6372 60.8944C73.7409 60.8944 73.8405 60.8964 73.936 60.8983L73.9395 60.8984H73.9475L73.9499 60.8985C74.1068 60.9016 74.2529 60.9044 74.3878 60.8986C74.7343 61.6903 74.9265 62.5333 74.9265 63.4105L74.9267 63.5663L74.9285 63.8002L74.9316 64.0133L74.9345 64.1687C74.9434 64.6042 74.9582 64.9932 74.9715 65.3405L74.9718 65.3484C75.0546 67.4994 75.0756 68.0489 73.2297 68.1592L71.0388 68.1117C71.0548 68.285 71.0628 68.4604 71.0628 68.6378C71.0628 71.7758 68.5188 74.3197 65.3809 74.3197C62.243 74.3197 59.699 71.7758 59.699 68.6378C59.699 68.5005 59.7039 68.3644 59.7135 68.2295C59.7221 68.1075 59.7348 67.9866 59.751 67.8669L32.426 67.2742ZM21.4548 66.6532L23.4612 66.7667C23.8153 67.3682 24.0183 68.07 24.0183 68.8194C24.0183 71.0497 22.2194 72.8578 20.0002 72.8578C17.7809 72.8578 15.982 71.0497 15.982 68.8194C15.982 67.9754 16.2395 67.1918 16.68 66.5438C17.4995 66.5577 18.1529 66.5676 18.6683 66.5747C17.9088 67.0309 17.4001 67.8654 17.4001 68.8194C17.4001 70.2626 18.5642 71.4325 20.0002 71.4325C21.4362 71.4325 22.6003 70.2626 22.6003 68.8194C22.6003 67.9178 22.146 67.1228 21.4548 66.6532ZM25.6073 53.6376C25.6068 52.5011 27.8796 50.0011 29.9255 48.8648C31.9714 47.7285 33.3255 47.2738 36.0619 47.2739C37.4256 47.2739 37.4256 47.9553 37.4256 48.8639V48.8648V53.6376C37.4256 54.4011 37.4256 55.2285 36.2892 55.2285H26.5164C26.0383 55.2285 25.6077 54.7741 25.6073 53.6376ZM26.0609 48.1829C26.4367 49.3105 26.1499 49.6058 25.6383 50.1325C25.0158 50.7736 24.0605 51.7573 23.5616 55.0012C23.4759 55.5574 17.8428 55.2637 17.1976 54.5467C15.1528 52.274 25.228 45.683 26.0609 48.1829ZM49.8245 53.241L49.926 53.4104C50.6076 54.5468 49.722 55.0014 49.2441 55.0014H39.9258C38.7895 55.0014 38.7895 54.1743 38.7895 53.4109V53.4104V48.6376V48.6367C38.7895 47.7284 38.7895 47.5013 40.1531 47.5013C44.017 47.5013 44.9255 47.7286 46.2896 48.6376C47.5896 49.5041 49.0958 52.0225 49.8243 53.2407L49.8244 53.2407L49.8244 53.2408L49.8245 53.241ZM15.8149 57.6878C18.0299 56.6444 22.1786 56.0968 24.6786 57.6878C27.1784 59.2787 28.0527 62.5021 27.0528 65.5492C26.7239 66.5515 8.95157 65.3661 8.82706 64.6402C8.70277 63.9143 13.6001 58.731 15.8149 57.6878ZM60.5713 60.5957C62.3895 59.0047 66.0259 57.6411 69.6625 59.9138C73.2994 62.1867 73.0597 68.3241 72.6975 67.5073C67.1455 54.9903 59.709 63.4514 57.3855 66.095L57.3854 66.0951L57.3794 66.1017C57.2527 66.246 57.1413 66.3729 57.0463 66.4778C57.0064 66.5219 56.9693 66.5621 56.9353 66.5981C55.3442 68.2824 58.7533 62.1866 60.5713 60.5957ZM65.3809 72.5015C67.5147 72.5015 69.2446 70.7717 69.2446 68.6378C69.2446 66.504 67.5147 64.7741 65.3809 64.7741C63.2471 64.7741 61.5172 66.504 61.5172 68.6378C61.5172 70.7717 63.2471 72.5015 65.3809 72.5015ZM67.881 68.6378C67.881 70.0186 66.7617 71.1378 65.3809 71.1378C64.0002 71.1378 62.8809 70.0186 62.8809 68.6378C62.8809 67.2571 64.0002 66.1378 65.3809 66.1378C66.7617 66.1378 67.881 67.2571 67.881 68.6378ZM72.9554 57.7125C74.0917 57.258 74.5463 57.7325 74.5463 59.0763C74.5463 60.42 74.1945 60.4398 73.0002 60.4397C71.8057 60.4397 70.9099 59.7596 70.9099 59.1624C70.9099 58.5652 71.819 58.1668 72.9554 57.7125ZM39.773 57.0308C40.1497 57.0308 40.4549 56.7255 40.4549 56.349C40.4549 55.9724 40.1497 55.6671 39.773 55.6671C39.4761 55.6671 39.2237 55.8569 39.13 56.1217H38.4094C38.2838 56.1217 38.1821 56.2235 38.1821 56.349C38.1821 56.4745 38.2838 56.5762 38.4094 56.5762H39.13C39.2237 56.841 39.4761 57.0308 39.773 57.0308ZM27.0458 57.0308C27.4225 57.0308 27.7276 56.7255 27.7276 56.349C27.7276 55.9725 27.4225 55.6672 27.0458 55.6672C26.7489 55.6672 26.4965 55.8569 26.4028 56.1217H25.6822C25.5565 56.1217 25.4549 56.2235 25.4549 56.349C25.4549 56.4745 25.5565 56.5763 25.6822 56.5763H26.4028C26.4965 56.841 26.7489 57.0308 27.0458 57.0308Z" fill="#F9C74F"/>
<rect x="1" y="1" width="78" height="78" rx="4" stroke="#F9C74F" stroke-width="2"/>
</svg>
