<svg width="80" height="80" viewBox="0 0 80 80" fill="none" xmlns="http://www.w3.org/2000/svg">
<path d="M19.9231 20.0397L24.2226 17.3036C24.7157 16.9899 25.3626 17.3448 25.3626 17.9294V26.3351C25.3626 26.7448 25.0305 27.0769 24.6209 27.0769H10.2802C9.87055 27.0769 9.53846 26.7448 9.53846 26.3351V13.9725C9.53846 13.5628 9.87055 13.2307 10.2802 13.2307H13.7418C14.1514 13.2307 14.4835 13.5628 14.4835 13.9725V20.0397L18.7831 17.3036C19.2762 16.9899 19.9231 17.3448 19.9231 17.9294V20.0397Z" fill="#F9C74F"/>
<path d="M68.4836 16.6774L67.2052 22.3024C67.138 22.5979 66.8753 22.8076 66.5723 22.8076H58.6447L58.8217 23.673H66.0806C66.4971 23.673 66.8058 24.0598 66.7135 24.4659L66.5643 25.1224C67.0697 25.3678 67.4183 25.8859 67.4183 26.4855C67.4183 27.3219 66.7402 27.9999 65.9038 27.9999C65.0674 27.9999 64.3894 27.3219 64.3894 26.4855C64.3894 26.0616 64.5638 25.6787 64.8444 25.4038H59.1748C59.4555 25.6787 59.6298 26.0616 59.6298 26.4855C59.6298 27.3219 58.9518 27.9999 58.1154 27.9999C57.279 27.9999 56.601 27.3219 56.601 26.4855C56.601 25.9236 56.9072 25.4335 57.3617 25.1722L55.462 15.8846H53.5721C53.2137 15.8846 52.9231 15.594 52.9231 15.2355V14.8028C52.9231 14.4444 53.2137 14.1538 53.5721 14.1538H56.3448C56.6532 14.1538 56.9189 14.3707 56.9807 14.6728L57.2286 15.8846H67.8507C68.2672 15.8846 68.5759 16.2713 68.4836 16.6774Z" fill="#F9C74F"/>
<path d="M4.92308 28.923C4.41328 28.923 4 29.3363 4 29.8461V31.6922C4 32.2021 4.41328 32.6153 4.92308 32.6153H15.1557C15.1047 32.7597 15.0769 32.915 15.0769 33.0769V42.7692C15.0769 43.5339 15.6968 44.0384 16.4615 44.0384H33.1644C33.6358 46.3605 35.226 48.2716 37.3462 49.1992V60.9999H21.4808C20.6839 60.9999 20.0385 61.6454 20.0385 62.4422V65.3269C20.0385 66.1237 20.6839 66.7692 21.4808 66.7692H58.9808C59.7776 66.7692 60.4231 66.1237 60.4231 65.3269V62.4422C60.4231 61.6454 59.7776 60.9999 58.9808 60.9999H43.1154V49.1992C45.2347 48.2716 46.8257 46.3614 47.2972 44.0384H64C64.7647 44.0384 65.3846 43.5339 65.3846 42.7692V33.0769C65.3846 32.915 65.3569 32.7597 65.3058 32.6153H75.0769C75.5867 32.6153 76 32.2021 76 31.6922V29.8461C76 29.3363 75.5867 28.923 75.0769 28.923H49.2308C48.721 28.923 48.3077 29.3363 48.3077 29.8461V31.6922C48.3077 32.2021 48.721 32.6153 49.2308 32.6153H59.4634C59.4124 32.7597 59.3846 32.915 59.3846 33.0769V38.2692H45.9675C44.6514 36.5276 42.5826 35.3846 40.2308 35.3846C37.8789 35.3846 35.8101 36.5276 34.494 38.2692H21.0769V33.0769C21.0769 32.915 21.0492 32.7597 20.9981 32.6153H30.7692C31.279 32.6153 31.6923 32.2021 31.6923 31.6922V29.8461C31.6923 29.3363 31.279 28.923 30.7692 28.923H4.92308Z" fill="#F9C74F"/>
</svg>
