<svg width="80" height="80" viewBox="0 0 80 80" fill="none" xmlns="http://www.w3.org/2000/svg">
<path fill-rule="evenodd" clip-rule="evenodd" d="M75 10.9146L74.9286 10.9138C73.7286 10.9138 72.9424 11.5759 72.1562 12.2379C71.3701 12.9 70.5839 13.562 69.3839 13.562C68.184 13.562 67.3978 12.9 66.6116 12.2379C65.8254 11.5759 65.0392 10.9138 63.8393 10.9138C62.6393 10.9138 61.8531 11.5759 61.067 12.2379C60.2808 12.9 59.4946 13.562 58.2946 13.562C57.0947 13.562 56.3085 12.9 55.5223 12.2379C54.7361 11.5759 53.95 10.9138 52.75 10.9138C51.55 10.9138 50.7639 11.5759 49.9777 12.2379C49.1915 12.9 48.4053 13.562 47.2054 13.562C46.0054 13.562 45.2192 12.9 44.433 12.2379C43.6469 11.5759 42.8607 10.9138 41.6607 10.9138C39.2611 10.9138 36.1161 13.562 36.1161 13.562H32.1438V35.4095H37.1651L38.1737 31.9157C38.3579 31.2778 39.2618 31.2778 39.446 31.9157L40.4546 35.4095H45.6275V32.3871C45.7387 32.396 45.8519 32.3909 45.9637 32.3707L46.0222 32.3587C46.0552 32.3511 46.0878 32.3422 46.1205 32.332C46.2902 32.2785 46.4547 32.1878 46.6038 32.0557L55.9775 23.7431V25.3053L56.1844 25.4788C56.9705 26.1409 57.7567 26.8029 58.9567 26.8029C60.1566 26.8029 60.9428 26.1409 61.729 25.4788C62.5152 24.8168 63.3014 24.1547 64.5013 24.1547C65.0751 24.1547 65.5542 24.306 65.9838 24.5364L66.8873 23.1717C66.2201 22.6323 65.5057 22.1686 64.5013 22.1686C63.3014 22.1686 62.5152 22.8307 61.729 23.4927C60.9428 24.1547 60.1566 24.8168 58.9567 24.8168C57.7764 24.8168 56.9964 24.1762 56.2232 23.5253L56.4656 23.3102C56.6673 23.1314 56.7963 22.9183 56.8619 22.695C56.9217 22.4906 56.9285 22.2775 56.8891 22.0742C57.469 22.5009 58.1097 22.8307 58.9567 22.8307C60.1566 22.8307 60.9428 22.1686 61.729 21.5066C62.5152 20.8445 63.3014 20.1825 64.5013 20.1825C65.7013 20.1825 66.4875 20.8445 67.2736 21.5066C67.4269 21.6356 67.5801 21.7646 67.7362 21.8887L68.6501 20.508C68.4933 20.4292 68.3433 20.3396 68.1979 20.2425C68.1536 20.213 68.1099 20.1828 68.0666 20.152C68.0178 20.1173 67.9693 20.0819 67.9215 20.0458C67.8423 19.9864 67.7644 19.9253 67.6871 19.8632C67.5478 19.7512 67.4107 19.6358 67.2736 19.5204C66.4875 18.8584 65.7013 18.1963 64.5013 18.1963C63.3014 18.1963 62.5152 18.8584 61.729 19.5204C60.9428 20.1825 60.1566 20.8445 58.9567 20.8445C57.7567 20.8445 56.9705 20.1825 56.1844 19.5204C55.3982 18.8584 54.612 18.1963 53.4121 18.1963C52.2121 18.1963 51.4259 18.8584 50.6397 19.5204C49.8536 20.1825 49.0674 20.8445 47.8674 20.8445C46.8456 20.8445 46.124 20.3645 45.4468 19.8131C45.2874 19.0796 45.0269 18.384 44.6803 17.7414C45.3883 18.3277 46.1312 18.8584 47.2054 18.8584C48.4053 18.8584 49.1915 18.1963 49.9777 17.5343C50.7639 16.8722 51.55 16.2102 52.75 16.2102C53.95 16.2102 54.7361 16.8722 55.5223 17.5343C56.3085 18.1963 57.0947 18.8584 58.2946 18.8584C59.4946 18.8584 60.2808 18.1963 61.067 17.5343C61.8531 16.8722 62.6393 16.2102 63.8393 16.2102C65.0392 16.2102 65.8254 16.8722 66.6116 17.5343C67.3978 18.1963 68.184 18.8584 69.3839 18.8584C69.5129 18.8584 69.6367 18.8508 69.7566 18.8363L71.6655 15.9525C71.0277 16.4555 70.3359 16.8722 69.3839 16.8722C68.184 16.8722 67.3978 16.2102 66.6116 15.5481C65.8254 14.8861 65.0392 14.2241 63.8393 14.2241C62.6393 14.2241 61.8531 14.8861 61.067 15.5481C60.2808 16.2102 59.4946 16.8722 58.2946 16.8722C57.0947 16.8722 56.3085 16.2102 55.5223 15.5481C54.7361 14.8861 53.95 14.2241 52.75 14.2241C51.55 14.2241 50.7639 14.8861 49.9777 15.5481C49.1915 16.2102 48.4053 16.8722 47.2054 16.8722C46.0054 16.8722 45.2192 16.2102 44.433 15.5481C43.6469 14.8861 42.8607 14.2241 41.6607 14.2241C41.4448 14.2241 41.2227 14.2455 40.9977 14.2845C40.9272 14.2521 40.8561 14.2207 40.7847 14.1904C40.7326 14.1683 40.6803 14.1467 40.6276 14.1257C40.5584 14.098 40.4886 14.0712 40.4184 14.0454L40.3195 14.0099L40.207 13.9713C39.993 13.8997 39.7751 13.837 39.5537 13.7835C39.4855 13.7671 39.4169 13.7515 39.3481 13.7368C39.2291 13.7114 39.1092 13.6887 38.9883 13.6688C39.8566 13.2361 40.806 12.9 41.6607 12.9C42.8607 12.9 43.6469 13.562 44.433 14.2241C45.2192 14.8861 46.0054 15.5481 47.2054 15.5481C48.4053 15.5481 49.1915 14.8861 49.9777 14.2241C50.7639 13.562 51.55 12.9 52.75 12.9C53.95 12.9 54.7361 13.562 55.5223 14.2241C56.3085 14.8861 57.0947 15.5481 58.2946 15.5481C59.4946 15.5481 60.2808 14.8861 61.067 14.2241C61.8531 13.562 62.6393 12.9 63.8393 12.9C65.0392 12.9 65.8254 13.562 66.6116 14.2241C67.3978 14.8861 68.184 15.5481 69.3839 15.5481C70.5839 15.5481 71.3701 14.8861 72.1562 14.2241C72.5606 13.8834 72.9654 13.5427 73.4263 13.2922L75 10.9146ZM55.5556 20.9955C54.9553 20.5417 54.2959 20.1825 53.4121 20.1825C52.5282 20.1825 51.8688 20.5417 51.2685 20.9955H55.5556ZM35.0348 22.8307C35.0348 24.6589 36.5169 26.1409 38.345 26.1409C40.1731 26.1409 41.6552 24.6589 41.6552 22.8307H35.0348ZM47.2901 23.0287C46.5385 23.0287 45.9378 23.6534 45.9669 24.4043L46.0652 26.9255C46.1085 28.0422 47.4307 28.6062 48.2666 27.8647L51.1098 25.3436C52.0214 24.5352 51.4495 23.0287 50.2311 23.0287H47.2901ZM33.7107 31.4373C34.0763 31.4373 34.3727 30.8445 34.3727 30.1132C34.3727 29.3819 34.0763 28.7891 33.7107 28.7891C33.3451 28.7891 33.0486 29.3819 33.0486 30.1132C33.0486 30.8445 33.3451 31.4373 33.7107 31.4373Z" fill="#F9C74F"/>
<path d="M49.7621 49.0451L47.772 52.0514C46.7625 52.6819 46.0468 53.2848 46.0468 53.2848V51.2986C46.0468 51.2986 47.8467 49.7832 49.7621 49.0451Z" fill="#F9C74F"/>
<path d="M52.5505 44.8322L51.3312 46.6743C48.9707 46.8504 46.0468 49.3125 46.0468 49.3125V47.3264C46.0468 47.3264 49.1918 44.6782 51.5914 44.6782C51.9431 44.6782 52.2596 44.7351 52.5505 44.8322Z" fill="#F9C74F"/>
<path d="M54.6253 41.6976L53.7201 43.0652C53.2944 42.8397 52.8202 42.692 52.2535 42.692C49.8539 42.692 46.7088 45.3402 46.7088 45.3402V43.3541C46.7088 43.3541 49.8539 40.7059 52.2535 40.7059C53.2507 40.7059 53.9622 41.1632 54.6253 41.6976Z" fill="#F9C74F"/>
<path d="M56.3861 39.0371L55.4742 40.4147C55.3229 40.2941 55.1745 40.169 55.0258 40.0439C54.2396 39.3818 53.4534 38.7198 52.2535 38.7198C49.8539 38.7198 46.7088 41.368 46.7088 41.368V39.3818C46.7088 39.3818 49.8539 36.7336 52.2535 36.7336C53.4534 36.7336 54.2396 37.3957 55.0258 38.0577C55.4567 38.4205 55.8873 38.7832 56.3861 39.0371Z" fill="#F9C74F"/>
<path d="M58.7993 35.3914L57.5615 37.2612C56.8309 37.0343 56.2594 36.5529 55.6878 36.0716C54.9017 35.4095 54.1155 34.7475 52.9155 34.7475C50.5159 34.7475 47.3709 37.3957 47.3709 37.3957V35.4095C47.3709 35.4095 50.5159 32.7613 52.9155 32.7613C54.1155 32.7613 54.9017 33.4234 55.6878 34.0854C56.474 34.7475 57.2602 35.4095 58.4602 35.4095C58.5769 35.4095 58.69 35.4033 58.7993 35.3914Z" fill="#F9C74F"/>
<path d="M62.4534 29.8706L59.9019 33.7253C59.6708 33.8456 59.4251 33.9427 59.1581 34.0056C58.9408 34.0568 58.7094 34.0854 58.4602 34.0854C57.2602 34.0854 56.474 33.4234 55.6878 32.7613C54.9017 32.0993 54.1155 31.4373 52.9155 31.4373C50.5159 31.4373 47.3709 34.0854 47.3709 34.0854V32.0993C47.3709 32.0993 50.5159 29.4511 52.9155 29.4511C54.1155 29.4511 54.9017 30.1132 55.6878 30.7752C56.474 31.4373 57.2602 32.0993 58.4602 32.0993C59.6601 32.0993 60.4463 31.4373 61.2325 30.7752C61.6227 30.4467 62.0128 30.1182 62.4534 29.8706Z" fill="#F9C74F"/>
<path d="M64.8162 26.3009L63.6014 28.1359C62.533 28.2166 61.8001 28.8338 61.067 29.4511C60.2808 30.1132 59.4946 30.7752 58.2946 30.7752C57.0947 30.7752 56.3085 30.1132 55.5223 29.4511C54.87 28.9019 54.2176 28.3526 53.3293 28.1814V26.1953C54.2176 26.3664 54.87 26.9158 55.5223 27.465C56.3085 28.127 57.0947 28.7891 58.2946 28.7891C59.4946 28.7891 60.2808 28.127 61.067 27.465C61.8531 26.8029 62.6393 26.1409 63.8393 26.1409C64.1981 26.1409 64.5201 26.2001 64.8162 26.3009Z" fill="#F9C74F"/>
<path d="M37.683 54.6089H32.1438V40.6269C32.5579 40.7002 33.0037 40.74 33.4679 40.74C35.6619 40.74 39.4263 37.8647 39.4263 36.7677V36.7336L45.6275 36.7336V46.6643C45.6275 51.052 42.0706 54.6089 37.683 54.6089Z" fill="#F9C74F"/>
<path d="M31.4818 61.8914C35.1382 61.8914 38.1022 59.2237 38.1022 55.933H35.6196C35.6196 57.7612 33.7669 59.2432 31.4818 59.2432V61.8914Z" fill="#F9C74F"/>
<path d="M30.8197 66.5257V63.8775C35.6186 63.8775 39.5091 62.3955 39.5091 60.5673H44.7227C44.7227 63.8581 38.4982 66.5257 30.8197 66.5257Z" fill="#F9C74F"/>
<path fill-rule="evenodd" clip-rule="evenodd" d="M23.78 13.562H30.1577V35.4095H24.5655L23.5569 31.9157C23.3727 31.2778 22.4688 31.2778 22.2846 31.9157L21.276 35.4095H15.8354V32.3443C15.6508 32.293 15.4714 32.1986 15.3101 32.0557L5.44828 23.3102C4.53668 22.502 5.10853 20.9955 6.32659 20.9955H15.8516C16.1151 16.846 19.564 13.562 23.78 13.562ZM14.6238 23.0287C15.1663 23.0287 15.6302 23.3543 15.8354 23.8178V27.0721C15.688 28.0901 14.446 28.573 13.6472 27.8647L10.8041 25.3436C9.89253 24.5352 10.4644 23.0287 11.6824 23.0287H14.6238ZM19.8077 22.8307C19.8077 24.6589 21.2899 26.1409 23.1179 26.1409C24.946 26.1409 26.4282 24.6589 26.4282 22.8307H19.8077ZM27.7523 31.4373C28.1179 31.4373 28.4143 30.8445 28.4143 30.1132C28.4143 29.3819 28.1179 28.7891 27.7523 28.7891C27.3866 28.7891 27.0902 29.3819 27.0902 30.1132C27.0902 30.8445 27.3866 31.4373 27.7523 31.4373Z" fill="#F9C74F"/>
<path d="M19.8077 36.7336H30.1577V54.6089H19.8077C15.42 54.6089 11.8631 51.052 11.8631 46.6643V42.692C11.8631 41.9284 11.8505 41.2603 11.8396 40.676C11.803 38.7662 11.7836 37.7521 12.2808 37.2232C12.8436 36.6245 14.0681 36.6477 16.6788 36.6973C17.5562 36.714 18.59 36.7336 19.8077 36.7336Z" fill="#F9C74F"/>
<path d="M16.2547 54.6089C17.3037 55.1193 18.4817 55.4057 19.7266 55.4057H30.0765L30.0752 68.4229C30.0752 69.1019 29.1749 69.3409 28.8384 68.7512L27.5964 66.5773C27.2809 66.0247 26.4372 66.2486 26.4372 66.885C26.4372 67.4987 25.6417 67.74 25.3006 67.2297L23.4108 64.4009C23.2023 64.089 22.7161 64.2365 22.7161 64.6116C22.7161 65.0154 22.1688 65.1396 21.9946 64.7754L19.68 59.9398C19.4434 59.446 18.7018 59.6144 18.7018 60.1618C18.7018 60.7674 17.8374 60.8749 17.689 60.2877L16.2547 54.6089Z" fill="#F9C74F"/>
</svg>
