<svg width="80" height="80" viewBox="0 0 80 80" fill="none" xmlns="http://www.w3.org/2000/svg">
<g clip-path="url(#clip0_5406_43412)">
<g clip-path="url(#clip1_5406_43412)">
<path d="M61.9442 23.4211C62.0055 24.4018 61.9621 25.4251 61.8028 26.0678C61.4141 27.6361 58.7542 27.9231 58.8008 29.4947C58.8446 30.973 60.8816 33.1801 60.8915 34.6589C60.9031 36.4091 58.5519 37.2327 58.4793 38.9814C58.4124 40.5896 61.075 41.3102 61.127 42.9298C61.1719 44.3302 58.5424 45.6498 58.6298 47.2769C58.6399 47.464 58.6549 47.6719 58.6731 47.8912C59.3554 47.6678 60.0778 47.5503 60.7927 47.5203C61.5301 47.4893 62.2554 47.7249 62.9907 47.7883C64.3989 47.9097 65.8134 48.0615 67.2256 48.0027C68.1623 47.9637 69.147 47.987 70.0129 47.6276C70.7193 47.3345 71.3624 46.8347 71.8356 46.2338C72.3553 45.5739 72.6805 44.7506 72.854 43.9287C73.009 43.1944 73.3298 42.2576 72.854 41.6772C72.7385 41.5362 72.355 41.7485 72.318 41.5701C72.2608 41.2934 72.8838 41.3379 73.0149 41.0876C73.131 40.866 72.9646 40.5822 73.0149 40.3372C73.097 39.9373 73.4782 39.6192 73.4974 39.2114C73.522 38.6865 73.3888 38.0798 73.0149 37.7105C72.842 37.5397 72.5607 37.4836 72.318 37.4961C71.6783 37.529 71.1599 38.0535 70.5491 38.2465C69.5734 38.555 68.566 38.7942 67.5471 38.8899C66.7997 38.9601 65.4473 39.5713 65.2956 38.8361C65.1486 38.1235 66.5955 38.174 67.2791 37.925C68.1671 37.6015 69.2505 37.7327 70.0129 37.1743C70.3048 36.9605 70.5292 36.6172 70.6027 36.263C70.7352 35.6244 70.0821 34.9542 70.2811 34.3332C70.3505 34.1166 70.6337 34.0374 70.7636 33.8508C71.1792 33.2536 71.59 32.5901 71.6747 31.8674C71.7489 31.234 71.5495 30.578 71.2996 29.9912C71.1034 29.5306 70.8018 29.1062 70.4418 28.7583C69.7075 28.0489 68.848 27.3851 67.8687 27.0963C67.5773 27.0104 67.214 27.2589 66.9574 27.0963C66.3565 26.7155 66.5587 25.66 66.0463 25.1665C64.9966 24.156 63.392 23.9571 62.0256 23.4512C61.9985 23.4412 61.9713 23.4312 61.9442 23.4211Z" stroke="#F9C74F" stroke-width="3"/>
<path d="M63.1616 31.1852C63.8767 31.1852 64.4564 30.596 64.4564 29.8691C64.4564 29.1422 63.8767 28.553 63.1616 28.553C62.4464 28.553 61.8667 29.1422 61.8667 29.8691C61.8667 30.596 62.4464 31.1852 63.1616 31.1852Z" fill="white" stroke="white" stroke-linejoin="round"/>
<path d="M69.4109 34.6157C69.0575 35.9499 68.5423 36.6571 68.0028 37.6568C67.9 37.8521 67.7983 38.0557 67.7615 38.2733C67.7228 38.5025 67.6291 38.8008 67.7883 38.9701C68.0344 39.2318 68.5128 39.1676 68.8605 39.0773C69.1027 39.0144 69.3246 38.8471 69.4769 38.6485C69.6214 38.4601 69.668 38.2105 69.7182 37.9784C69.7655 37.7594 69.7714 37.5324 69.7718 37.3084C69.7722 36.9589 69.754 36.6179 69.7435 36.263C69.7418 35.6242 69.5015 34.2735 69.4109 34.6157Z" fill="white" stroke="white"/>
<path d="M68.3549 33.455C68.5029 33.5636 68.7454 33.7106 69.0017 33.356C69.2023 33.0786 69.2317 33.1015 69.0775 32.8443C68.7944 32.3717 68.6202 32.1851 68.1085 32.3367C67.5967 32.4884 67.5778 32.5263 66.9334 33.0949C66.289 33.6634 66.9296 33.5148 67.0661 33.4739C67.4507 33.3585 67.7727 33.0651 68.1653 32.9811C68.2518 32.9627 68.3359 32.7727 68.4307 32.9811C68.5254 33.1896 68.2259 33.3603 68.3549 33.455Z" fill="#F9C74F" stroke="#F9C74F"/>
<path d="M73.1818 39.9392C72.5848 40.7044 71.1162 41.0568 69.852 41.3825C69.0427 41.591 68.1622 41.4941 67.3459 41.3155C66.6577 41.1649 64.7066 40.3762 65.4027 40.4846C65.5798 40.5122 66.7964 40.9384 67.5201 41.0072C68.4553 41.0962 69.4428 41.1555 70.3344 40.8598C71.2976 40.5405 72.0933 39.8274 72.8673 39.1712C73.0867 38.9852 73.4044 38.2586 73.457 38.5414C73.5107 38.8299 73.5213 38.9711 73.4972 39.2784C73.4896 39.3761 73.3191 39.7632 73.1818 39.9392Z" fill="#F9C74F" stroke="#F9C74F"/>
<path d="M55.6238 20.0603C53.6444 20.0339 51.7017 20.1335 50.0156 20.3757C46.7137 20.982 43.9076 23.0655 42.1101 26.1147C41.0569 28.0111 41.0483 30.3363 40.8234 32.4938C40.6104 34.5378 40.7788 36.6035 40.7699 38.6585C40.7512 42.947 40.2259 47.2702 40.7699 51.524C41.0041 53.3554 40.7868 55.6546 42.1637 56.8847C42.6348 57.3056 43.6301 57.6335 44.0399 57.1527C44.7438 56.3269 43.2185 55.1192 43.075 54.0436C42.744 51.5624 43.1092 49.031 43.343 46.5387C43.4426 45.4769 43.9014 44.4396 43.8254 43.3758C43.7244 41.9606 42.402 40.7078 42.5925 39.3018C42.8083 37.7102 45.0621 36.8307 45.1657 35.2278C45.2533 33.8716 42.13 32.9996 42.9196 30.5055C42.9675 30.3542 43.0255 30.2106 43.0923 30.0735C43.6311 31.7354 46.092 32.9728 46.0487 34.7957C46.0082 36.4961 43.4798 37.4406 43.3685 39.1379C43.2463 41 45.5869 41.3256 45.5476 43.1583C45.5153 44.6616 43.9638 44.8238 43.9045 46.321C43.8153 48.5684 43.7874 57.9724 45.8476 58.8748C47.4745 59.5875 48.9709 60.8454 48.7267 58.9306C48.405 56.4085 47.3624 50.1221 47.2177 47.4279C47.1303 45.8008 49.76 44.4812 49.7151 43.0808C49.6631 41.4612 47.0003 40.7406 47.0671 39.1324C47.1398 37.3837 49.4912 36.5599 49.4796 34.8097C49.4697 33.3308 47.4327 31.124 47.3889 29.6457C47.3423 28.0741 50.0019 27.7871 50.3907 26.2188C50.6111 25.3295 50.6139 23.6813 50.4181 22.4484C50.9879 23.4865 51.6327 24.6936 51.4629 25.5219C51.177 26.9161 48.9058 27.4276 48.7827 28.8455C48.6007 30.9411 51.8883 32.2639 51.8382 34.3668C51.7977 36.0672 49.2691 37.0117 49.1578 38.709C49.0356 40.5711 51.3762 40.8967 51.3369 42.7294C51.3047 44.2327 49.7531 44.3949 49.6938 45.8921C49.6046 48.1395 49.577 57.5435 51.6372 58.4459C53.264 59.1586 54.7605 60.4165 54.5162 58.5017C54.1945 55.9796 53.152 49.6933 53.0072 46.999C52.9198 45.372 55.5493 44.0523 55.5044 42.6519C55.4524 41.0323 52.7898 40.3117 52.8567 38.7035C52.9293 36.9548 55.2805 36.1312 55.2689 34.381C55.259 32.9022 53.222 30.6951 53.1782 29.2168C53.1316 27.6453 55.7915 27.3582 56.1802 25.7899C56.3893 24.9463 56.4024 23.4189 56.2362 22.2115C56.8356 23.3079 57.6276 24.6708 57.4414 25.5787C57.1555 26.973 54.8843 27.4844 54.7612 28.9023C54.5792 30.9979 57.8668 32.3207 57.8167 34.4236C57.7763 36.124 55.2476 37.0686 55.1363 38.7658C55.0142 40.628 57.3547 40.9535 57.3154 42.7863C57.2832 44.2896 55.7319 44.4518 55.6725 45.9489C55.5834 48.1964 55.5555 57.6003 57.6157 58.5028C59.2425 59.2154 60.739 60.4735 60.4948 58.5588C60.173 56.0366 59.1305 49.7501 58.9858 47.0558C58.8984 45.4288 61.5279 44.1091 61.4829 42.7088C61.4309 41.0892 58.7684 40.3686 58.8352 38.7603C58.9078 37.0116 61.2591 36.1881 61.2474 34.4379C61.2376 32.959 59.2006 30.7519 59.1567 29.2737C59.1102 27.7021 61.77 27.4151 62.1587 25.8467C62.539 24.3125 62.2685 20.6054 61.4526 20.5008C59.6193 20.239 57.6032 20.0867 55.6238 20.0603Z" fill="#F9C74F" stroke="#F9C74F"/>
<path d="M39.0411 37.0909C38.81 35.7718 37.5543 34.8555 36.9504 33.6601C36.7589 33.281 37.1113 32.9097 36.468 32.4808C35.8247 32.052 36.8968 31.9983 37.0577 30.819C37.2185 29.6397 37.5401 28.9428 36.9504 27.7635C36.3608 26.5841 35.7142 25.5907 34.8062 24.7615C34.1793 24.1891 33.3746 23.8403 32.6083 23.475C31.2812 22.8422 29.9328 22.1503 28.4807 21.9204C27.3323 21.7385 26.1566 22.0074 24.9963 22.0812C23.6723 22.1654 22.3313 22.1479 21.0294 22.4028C19.9812 22.6081 18.9755 22.9969 17.9739 23.3678C16.6075 23.8736 15.003 24.0726 13.9534 25.0832C13.4409 25.5766 13.643 26.6322 13.0421 27.013C12.7855 27.1756 12.4222 26.9271 12.1308 27.013C11.1514 27.3017 10.292 27.9653 9.55769 28.6748C9.19765 29.0226 8.89615 29.4471 8.69999 29.9077C8.4501 30.4945 8.25052 31.1505 8.32475 31.7839C8.40943 32.5066 8.82041 33.1702 9.23605 33.7673C9.36598 33.954 9.6491 34.0332 9.71851 34.2498C9.91753 34.8708 9.26438 35.5411 9.39687 36.1796C9.47038 36.5339 9.69465 36.8771 9.98654 37.0909C10.7489 37.6494 11.8325 37.518 12.7205 37.8414C13.4041 38.0904 14.8509 38.0401 14.7039 38.7527C14.5522 39.4879 13.1998 38.8765 12.4524 38.8063C11.4335 38.7106 10.4262 38.4715 9.45047 38.1631C8.83972 37.97 8.32117 37.4455 7.68148 37.4126C7.43876 37.4001 7.15752 37.4562 6.9846 37.627C6.61067 37.9963 6.47747 38.603 6.50214 39.128C6.52129 39.5358 6.90251 39.8538 6.9846 40.2537C7.03489 40.4987 6.86849 40.7826 6.9846 41.0042C7.11572 41.2544 7.73873 41.21 7.68148 41.4866C7.64453 41.6651 7.26094 41.4529 7.14541 41.5938C6.66961 42.1742 6.99041 43.111 7.14541 43.8453C7.31891 44.6672 7.64426 45.4904 8.16393 46.1504C8.63707 46.7513 9.28013 47.251 9.98654 47.5441C10.8525 47.9035 11.8373 47.8804 12.7741 47.9194C14.1863 47.9782 15.6007 47.8263 17.0089 47.7049C17.7443 47.6416 18.4694 47.4059 19.2068 47.4369C20.0821 47.4737 20.97 47.6388 21.7799 47.973C22.6275 48.3227 23.5277 48.7458 24.085 49.4739C24.4731 49.981 24.5205 50.6769 24.6746 51.2966C24.8235 51.8952 24.54 52.704 24.9963 53.1192C25.8183 53.8672 27.2159 53.5165 28.3198 53.3872C31.0812 53.0638 34.4021 52.8881 36.2536 50.8141C39.3622 47.332 39.8466 41.6887 39.0411 37.0909Z" stroke="#F9C74F" stroke-width="3"/>
<path d="M16.8375 31.1017C16.1223 31.1017 15.5426 30.5125 15.5426 29.7856C15.5426 29.0587 16.1223 28.4695 16.8375 28.4695C17.5526 28.4695 18.1323 29.0587 18.1323 29.7856C18.1323 30.5125 17.5526 31.1017 16.8375 31.1017Z" fill="white" stroke="white" stroke-linejoin="round"/>
<path d="M10.5886 34.5322C10.942 35.8664 11.4573 36.5736 11.9967 37.5733C12.0995 37.7686 12.2012 37.9722 12.238 38.1898C12.2767 38.419 12.3704 38.7173 12.2112 38.8866C11.9651 39.1483 11.4867 39.0841 11.1391 38.9939C10.8968 38.9309 10.6749 38.7636 10.5226 38.565C10.3781 38.3766 10.3315 38.127 10.2814 37.8949C10.2341 37.6759 10.2281 37.4489 10.2277 37.2249C10.2273 36.8754 10.2455 36.5344 10.256 36.1795C10.2577 35.5407 10.498 34.19 10.5886 34.5322Z" fill="white" stroke="white"/>
<path d="M11.6447 33.3715C11.4966 33.4801 11.2541 33.6271 10.9978 33.2725C10.7973 32.9951 10.7678 33.018 10.922 32.7608C11.2051 32.2882 11.3793 32.1016 11.891 32.2533C12.4028 32.4049 12.4217 32.4428 13.0661 33.0114C13.7105 33.5799 13.0699 33.4313 12.9334 33.3904C12.5488 33.275 12.2268 32.9816 11.8342 32.8976C11.7477 32.8792 11.6636 32.6892 11.5688 32.8976C11.4741 33.1061 11.7736 33.2768 11.6447 33.3715Z" fill="#F9C74F" stroke="#F9C74F"/>
<path d="M6.81773 39.8557C7.41475 40.6209 8.8833 40.9733 10.1475 41.299C10.9568 41.5075 11.8373 41.4106 12.6536 41.232C13.3418 41.0814 15.2929 40.2927 14.5968 40.4011C14.4197 40.4287 13.2031 40.8549 12.4794 40.9237C11.5442 41.0127 10.5567 41.072 9.66508 40.7763C8.70193 40.457 7.90621 39.7439 7.13219 39.0877C6.9128 38.9018 6.59511 38.1751 6.54252 38.4579C6.48886 38.7464 6.47823 38.8876 6.50229 39.1949C6.50994 39.2926 6.68045 39.6798 6.81773 39.8557Z" fill="#F9C74F" stroke="#F9C74F"/>
<path d="M28.7485 31.3551C29.3863 29.4418 32.3937 29.1037 33.1978 28.1388C34.0019 27.1739 34.4307 25.1368 34.0555 27.7099C33.6803 30.283 33.8947 29.8542 33.305 31.1943C32.7153 32.5345 32.9298 33.3386 31.8577 34.6787C30.7855 36.0189 30.274 36.9459 29.6598 36.9838C28.5771 36.9968 28.0471 36.3987 27.8664 35.7741C27.6099 34.8876 28.7197 33.4615 29.3682 33.0382C29.4473 32.9877 29.6177 32.3858 29.5711 32.2463C29.3806 31.6757 28.3751 32.4806 28.7485 31.3551Z" stroke="#F9C74F"/>
<path d="M30.1491 31.3431C30.2249 30.6039 29.8269 30.964 30.4145 30.5092C31.002 30.0543 30.8883 30.3575 31.9875 29.8837C33.0868 29.4099 33.9397 29.2962 33.0678 29.6563C32.196 30.0164 31.9875 30.3196 31.5516 30.4523C31.1157 30.585 30.5661 30.585 30.7367 30.7935C30.9072 31.0019 30.9262 30.6418 31.2863 30.983C31.6464 31.3241 31.8928 31.2104 31.8359 31.7411C31.7791 32.2718 31.9307 32.0443 31.7791 32.6319C31.6274 33.2194 31.7791 34.0723 31.6274 33.2573C31.4758 32.4423 31.7222 32.7456 31.5137 32.2149C31.3052 31.6842 31.5137 31.7221 31.0968 31.4378C30.6798 31.1536 30.8125 31.0778 30.585 31.1915C30.3576 31.3052 30.2628 31.0588 30.3387 31.4568C30.3449 31.4898 30.4144 31.9532 30.4026 31.9813C30.359 32.0689 30.1382 31.4404 30.1491 31.3431Z" fill="#F9C74F" stroke="#F9C74F"/>
<path d="M30.3508 32.9069C30.3697 33.5892 30.3887 34.0915 30.2465 33.6935C30.1044 33.2955 30.1005 33.2305 29.9812 33.0112C29.828 32.7297 29.812 32.6366 29.8864 32.5089C30.1655 32.0301 30.3111 32.0643 30.3508 32.9069Z" fill="#F9C74F" stroke="#F9C74F"/>
</g>
</g>
<rect x="1" y="1" width="78" height="78" rx="4" stroke="#F9C74F" stroke-width="2"/>
<defs>
<clipPath id="clip0_5406_43412">
<rect width="80" height="80" rx="5" fill="white"/>
</clipPath>
<clipPath id="clip1_5406_43412">
<rect width="68.0914" height="40" fill="white" transform="translate(5.9541 20)"/>
</clipPath>
</defs>
</svg>
