<svg width="80" height="80" viewBox="0 0 80 80" fill="none" xmlns="http://www.w3.org/2000/svg">
<path fill-rule="evenodd" clip-rule="evenodd" d="M5.11111 53.3333H27.3333C27.9444 53.3333 28.4444 53.8333 28.4444 54.4444V56.6666C28.4444 57.2777 27.9444 57.7777 27.3333 57.7777H5.11111C4.5 57.7777 4 57.2777 4 56.6666V54.4444C4 53.8333 4.5 53.3333 5.11111 53.3333ZM32.625 24.0486L38.25 29.6736C39.0833 30.5069 39.5556 31.6388 39.5556 32.8194V48.3333C39.5556 51.2638 37.0208 53.6111 34.0347 53.3124C31.4306 53.0416 29.5556 50.6597 29.5556 48.0416V46.1111C29.5556 44.5763 28.3125 43.3333 26.7778 43.3333H26.2222V51.1111H6.22222V26.6666C6.22222 24.2152 8.21528 22.2222 10.6667 22.2222H21.7778C24.2292 22.2222 26.2222 24.2152 26.2222 26.6666V39.9999H26.7778C30.1528 39.9999 32.8889 42.7361 32.8889 46.1111V48.3333C32.8889 49.2499 33.6389 49.9999 34.5556 49.9999C35.4722 49.9999 36.2222 49.2499 36.2222 48.3333V37.1666C34.3403 36.8958 32.8889 35.2847 32.8889 33.3333V29.0208L30.2708 26.4027C29.8403 25.9722 29.8403 25.2638 30.2708 24.8333L31.0556 24.0486C31.4861 23.618 32.1944 23.618 32.625 24.0486ZM10.6667 35.5555H21.7778V26.6666H10.6667V35.5555ZM75.2153 37.6597L66.6875 29.1319C66.2431 28.6944 65.6458 28.4444 65.0208 28.4444C63.7222 28.4444 62.6667 29.4999 62.6667 30.7986V35.1111H53.7778C52.5486 35.1111 51.5556 36.1041 51.5556 37.3333V41.7777C51.5556 43.0069 52.5486 43.9999 53.7778 43.9999H62.6667V48.3124C62.6667 49.6111 63.7222 50.6666 65.0208 50.6666C65.6458 50.6666 66.2431 50.4236 66.6875 49.9791L75.2153 41.4513C75.7153 40.9513 76 40.2638 76 39.5555C76 38.8472 75.7153 38.1597 75.2153 37.6597ZM47.1111 28.4444H51.5556C52.7847 28.4444 53.7778 27.4513 53.7778 26.2222C53.7778 24.993 52.7847 23.9999 51.5556 23.9999H47.1111C43.4306 23.9999 40.4444 26.9861 40.4444 30.6666V48.4444C40.4444 52.1249 43.4306 55.1111 47.1111 55.1111H51.5556C52.7847 55.1111 53.7778 54.118 53.7778 52.8888C53.7778 51.6597 52.7847 50.6666 51.5556 50.6666H47.1111C45.8819 50.6666 44.8889 49.6736 44.8889 48.4444V30.6666C44.8889 29.4374 45.8819 28.4444 47.1111 28.4444Z" fill="#F9C74F"/>
</svg>
