<svg width="80" height="80" viewBox="0 0 80 80" fill="none" xmlns="http://www.w3.org/2000/svg">
<path d="M26.1819 43.6853C26.2128 43.4339 26.4709 43.2585 26.7583 43.2938C27.0457 43.3291 27.2537 43.5617 27.2229 43.8132C27.192 44.0646 26.9338 44.24 26.6465 44.2047C26.359 44.1694 26.151 43.9368 26.1819 43.6853Z" fill="#F9C74F"/>
<path fill-rule="evenodd" clip-rule="evenodd" d="M29.777 44.1268C30.5256 43.4257 30.6245 42.8061 30.4096 42.3553C30.2663 42.0557 29.8389 41.5523 28.5906 41.5269C28.3308 40.7549 27.8595 40.193 27.1497 40.1059C26.4399 40.0187 25.8468 40.4499 25.4078 41.1361C24.1915 40.8599 23.6539 41.2438 23.4425 41.4998C23.1247 41.8855 23.0709 42.5101 23.6277 43.3717C22.8791 44.0728 22.7802 44.6924 22.9952 45.1432C23.3765 45.9416 24.5584 45.9662 24.8096 45.9715L24.8141 45.9716C25.0739 46.7434 25.5452 47.3055 26.255 47.3926C26.9648 47.4798 27.5582 47.0484 27.9969 46.3624L28.0013 46.3634C28.2462 46.419 29.3989 46.681 29.9622 45.9987C30.28 45.6129 30.334 44.9884 29.777 44.1268ZM27.5236 41.6146C27.3753 41.2535 27.1919 41.0356 27.0379 41.0167C26.8839 40.9978 26.6531 41.1648 26.4221 41.4794C26.5976 41.5544 26.773 41.6381 26.9503 41.73C27.1446 41.6837 27.3351 41.6449 27.5236 41.6146ZM24.8056 42.5502C24.7496 42.5809 24.6946 42.6119 24.6407 42.6433L24.5791 42.6795L24.5397 42.7032L24.4927 42.7318C24.4671 42.7476 24.4416 42.7635 24.4164 42.7795C24.2114 42.4148 24.1796 42.1568 24.2576 42.0622C24.3238 41.9816 24.5443 41.9317 24.8945 41.9747C24.9066 41.9762 24.92 41.9786 24.9337 41.9814L24.9457 41.9837C24.9595 41.9865 24.9734 41.9893 24.9863 41.9913C24.9169 42.175 24.8565 42.3614 24.8056 42.5502ZM23.9221 44.7947C23.8692 44.6841 23.9624 44.4414 24.2496 44.1373C24.3514 44.2442 24.4581 44.3491 24.5718 44.454C24.5757 44.6525 24.5896 44.8474 24.6118 45.0379C24.2107 45.0015 23.9706 44.896 23.9221 44.7947ZM26.3669 46.4818C26.2128 46.4629 26.0294 46.245 25.8813 45.8839C26.0698 45.8536 26.2602 45.8148 26.4545 45.7685C26.6317 45.8605 26.8072 45.9441 26.9827 46.0191C26.7516 46.3337 26.5209 46.5007 26.3669 46.4818ZM26.5763 44.7761C26.8566 44.6928 27.1908 44.5857 27.6584 44.3675C27.7393 43.9758 27.7631 43.7801 27.7795 43.3808C27.3795 43.0566 27.0807 42.8716 26.8285 42.7225C26.5479 42.806 26.2135 42.9133 25.7464 43.1311C25.6654 43.5227 25.6414 43.7184 25.6252 44.1179C26.0262 44.4426 26.3246 44.6276 26.5763 44.7761ZM29.1472 45.4363C29.0759 45.5232 28.8175 45.5666 28.4191 45.5051C28.4868 45.3256 28.5474 45.1399 28.5991 44.9485C28.7347 44.8742 28.8636 44.7982 28.9884 44.7192C29.1934 45.0837 29.2251 45.3417 29.1472 45.4363ZM29.0152 43.2186C29.063 43.2659 29.1095 43.3133 29.1551 43.3612C29.4422 43.0571 29.5354 42.8144 29.4826 42.7036C29.438 42.6096 29.236 42.5076 28.8859 42.4646C28.8732 42.4631 28.8588 42.4622 28.8441 42.4615L28.8336 42.461C28.8196 42.4603 28.8056 42.4597 28.7927 42.4586C28.8157 42.6535 28.8291 42.8491 28.8329 43.0445C28.8957 43.1024 28.9563 43.1604 29.0152 43.2186Z" fill="#F9C74F"/>
<path d="M54.2461 47.0499C53.9587 47.0146 53.7006 47.19 53.6697 47.4414C53.6388 47.6929 53.8468 47.9255 54.1343 47.9608C54.4216 47.9961 54.6798 47.8207 54.7107 47.5693C54.7415 47.3178 54.5335 47.0852 54.2461 47.0499Z" fill="#F9C74F"/>
<path fill-rule="evenodd" clip-rule="evenodd" d="M57.8974 46.1114C58.1123 46.5622 58.0134 47.1818 57.2648 47.8829C57.8218 48.7445 57.7678 49.369 57.45 49.7547C56.8867 50.4371 55.734 50.1751 55.4891 50.1195L55.4847 50.1185C55.046 50.8045 54.4526 51.2359 53.7428 51.1487C53.033 51.0616 52.5617 50.4995 52.3019 49.7277L52.2974 49.7276C52.0462 49.7223 50.8643 49.6977 50.483 48.8993C50.2681 48.4485 50.3669 47.8289 51.1155 47.1278C50.5587 46.2662 50.6125 45.6416 50.9303 45.2559C51.1417 44.9999 51.6793 44.616 52.8956 44.8922C53.3345 44.206 53.9277 43.7748 54.6375 43.862C55.3473 43.9491 55.8186 44.511 56.0784 45.283C57.3267 45.3084 57.7541 45.8118 57.8974 46.1114ZM51.7374 47.8934C51.4502 48.1975 51.357 48.4402 51.4099 48.5508C51.4584 48.6521 51.6985 48.7576 52.0996 48.794C52.0774 48.6035 52.0635 48.4086 52.0596 48.2101C51.9459 48.1052 51.8392 48.0003 51.7374 47.8934ZM52.2934 46.3063C52.1579 46.3805 52.029 46.4566 51.9042 46.5356C51.6992 46.1709 51.6674 45.9129 51.7454 45.8183C51.8116 45.7377 52.0321 45.6878 52.3823 45.7308C52.388 45.7315 52.394 45.7324 52.4002 45.7335C52.4109 45.7353 52.4223 45.7376 52.4336 45.7399C52.4475 45.7426 52.4613 45.7454 52.4741 45.7474C52.4047 45.9311 52.3443 46.1175 52.2934 46.3063ZM55.0114 45.3707C54.8631 45.0096 54.6797 44.7917 54.5257 44.7728C54.3717 44.7539 54.1409 44.9209 53.9099 45.2355C54.0854 45.3105 54.2608 45.3942 54.4381 45.4861C54.6324 45.4398 54.8229 45.401 55.0114 45.3707ZM53.8547 50.2379C53.7006 50.219 53.5172 50.0011 53.3691 49.64C53.4313 49.63 53.4936 49.6191 53.5563 49.6072C53.6112 49.5969 53.6662 49.5859 53.7214 49.5743C53.7677 49.5645 53.8142 49.5543 53.8609 49.5436C53.8879 49.5374 53.9151 49.5311 53.9423 49.5246C54.1195 49.6166 54.295 49.7002 54.4705 49.7752C54.2394 50.0898 54.0087 50.2568 53.8547 50.2379ZM54.0641 48.5322C54.3444 48.4489 54.6786 48.3418 55.1462 48.1236C55.2271 47.7319 55.2509 47.5362 55.2673 47.1369C54.8673 46.8127 54.5685 46.6277 54.3163 46.4786C54.0357 46.5621 53.7013 46.6694 53.2342 46.8872C53.1532 47.2788 53.1292 47.4745 53.113 47.874C53.514 48.1987 53.8124 48.3837 54.0641 48.5322ZM56.635 49.1924C56.5637 49.2793 56.3053 49.3227 55.9069 49.2612C55.9746 49.0817 56.0352 48.896 56.0869 48.7046C56.1591 48.665 56.2295 48.625 56.2983 48.5842C56.3587 48.5485 56.4179 48.5122 56.4762 48.4753C56.6812 48.8398 56.7129 49.0978 56.635 49.1924ZM56.3207 46.8006C56.4345 46.9055 56.5411 47.0104 56.6429 47.1173C56.93 46.8132 57.0232 46.5705 56.9704 46.4597C56.9258 46.3657 56.7238 46.2637 56.3737 46.2207C56.3659 46.2198 56.3575 46.2191 56.3488 46.2185L56.3214 46.2171L56.3003 46.216L56.2805 46.2147L56.2853 46.2565L56.2901 46.3019L56.2961 46.3631C56.3029 46.4368 56.3084 46.5105 56.3126 46.5841C56.3166 46.6563 56.3193 46.7285 56.3207 46.8006Z" fill="#F9C74F"/>
<path d="M40.0753 45.3426C39.788 45.3073 39.5299 45.4826 39.4989 45.7341C39.4681 45.9856 39.6761 46.2182 39.9635 46.2535C40.2509 46.2887 40.5091 46.1134 40.5399 45.8619C40.5708 45.6105 40.3628 45.3779 40.0753 45.3426Z" fill="#F9C74F"/>
<path fill-rule="evenodd" clip-rule="evenodd" d="M43.0941 46.1756C43.8427 45.4745 43.9416 44.8549 43.7266 44.4041C43.5833 44.1045 43.1559 43.6011 41.9077 43.5757C41.6478 42.8037 41.1766 42.2418 40.4668 42.1547C39.757 42.0675 39.1638 42.4987 38.7249 43.1849C37.5085 42.9087 36.971 43.2926 36.7596 43.5486C36.4418 43.9343 36.3879 44.5589 36.9448 45.4205C36.1962 46.1216 36.0973 46.7412 36.3122 47.192C36.6935 47.9903 37.8755 48.015 38.1267 48.0203L38.1312 48.0204C38.3909 48.7922 38.8623 49.3542 39.5721 49.4414C40.2819 49.5286 40.8752 49.0972 41.314 48.4112L41.3184 48.4122C41.5633 48.4678 42.716 48.7298 43.2793 48.0474C43.5971 47.6617 43.651 47.0372 43.0941 46.1756ZM37.5667 46.1861C37.2794 46.4902 37.1862 46.7328 37.2392 46.8435C37.2877 46.9448 37.5278 47.0503 37.9289 47.0867C37.9067 46.8961 37.8928 46.7013 37.8889 46.5028L37.8603 46.4763C37.8372 46.4548 37.8145 46.4333 37.792 46.4118C37.7727 46.3933 37.7536 46.3749 37.7347 46.3564C37.6923 46.3148 37.6507 46.273 37.61 46.2311L37.5667 46.1861ZM38.1227 44.599C37.9871 44.6732 37.8582 44.7492 37.7334 44.8282C37.5284 44.4636 37.4967 44.2056 37.5747 44.111C37.6409 44.0304 37.8613 43.9805 38.2115 44.0235C38.219 44.0244 38.2269 44.0257 38.2351 44.0272L38.2416 44.0284L38.2453 44.0291L38.2628 44.0325C38.2766 44.0353 38.2906 44.0381 38.3034 44.0401C38.2943 44.0643 38.2853 44.0884 38.2765 44.1127C38.2607 44.1561 38.2455 44.1996 38.2307 44.2432C38.224 44.263 38.2175 44.2827 38.2111 44.3024L38.2013 44.3327L38.1903 44.3674C38.1662 44.4442 38.1436 44.5214 38.1227 44.599ZM40.8406 43.6634C40.6924 43.3023 40.509 43.0844 40.3549 43.0655C40.201 43.0466 39.9702 43.2136 39.7391 43.5282C39.9147 43.6032 40.0901 43.6868 40.2674 43.7788C40.4616 43.7324 40.6521 43.6937 40.8406 43.6634ZM39.6839 48.5306C39.5299 48.5117 39.3465 48.2938 39.1983 47.9327C39.3868 47.9023 39.5773 47.8636 39.7716 47.8173C39.8511 47.8585 39.9302 47.8981 40.0091 47.936C40.0317 47.9468 40.0543 47.9575 40.0769 47.9681L40.1466 48.0003C40.1977 48.0235 40.2487 48.0461 40.2998 48.0679C40.0687 48.3825 39.838 48.5495 39.6839 48.5306ZM39.8933 46.8249C40.1737 46.7415 40.5078 46.6345 40.9754 46.4163C41.0564 46.0246 41.0802 45.8289 41.0966 45.4296C40.6966 45.1054 40.3978 44.9203 40.1455 44.7713C39.865 44.8548 39.5305 44.9621 39.0634 45.1799C38.9825 45.5715 38.9585 45.7672 38.9423 46.1666C39.3432 46.4914 39.6417 46.6764 39.8933 46.8249ZM42.4642 47.4851C42.393 47.572 42.1345 47.6154 41.7362 47.5539L41.7447 47.5312C41.7601 47.4898 41.7751 47.4481 41.7898 47.406C41.8092 47.3502 41.828 47.2938 41.846 47.2369L41.8575 47.2L41.874 47.1456C41.8887 47.0965 41.9028 47.0471 41.9162 46.9972L41.9691 46.968C42.0855 46.903 42.197 46.8366 42.3054 46.7679C42.5105 47.1325 42.5422 47.3905 42.4642 47.4851ZM42.15 45.0933C42.2638 45.1981 42.3704 45.3031 42.4722 45.41C42.7593 45.1059 42.8525 44.8632 42.7997 44.7524C42.755 44.6584 42.553 44.5564 42.203 44.5134C42.1949 44.5124 42.1861 44.5117 42.177 44.5112L42.1586 44.5101L42.1509 44.5098L42.1425 44.5094L42.1358 44.5091C42.1269 44.5086 42.1181 44.5081 42.1098 44.5073C42.1328 44.7023 42.1461 44.8978 42.15 45.0933Z" fill="#F9C74F"/>
<path d="M26.1819 62.978C26.2128 62.7265 26.4709 62.5512 26.7583 62.5865C27.0457 62.6218 27.2537 62.8544 27.2229 63.1058C27.192 63.3573 26.9338 63.5326 26.6465 63.4974C26.359 63.4621 26.151 63.2295 26.1819 62.978Z" fill="#F9C74F"/>
<path fill-rule="evenodd" clip-rule="evenodd" d="M30.4096 61.648C30.6245 62.0988 30.5256 62.7184 29.777 63.4195C30.334 64.2811 30.28 64.9056 29.9622 65.2913C29.3989 65.9737 28.2462 65.7117 28.0013 65.6561L27.9969 65.6551C27.5582 66.3411 26.9648 66.7725 26.255 66.6853C25.5452 66.5981 25.0739 66.0361 24.8141 65.2643L24.8096 65.2642C24.5584 65.2589 23.3765 65.2342 22.9952 64.4359C22.7802 63.9851 22.8791 63.3655 23.6277 62.6644C23.0709 61.8028 23.1247 61.1782 23.4425 60.7925C23.6539 60.5365 24.1915 60.1526 25.4078 60.4288C25.8468 59.7426 26.4399 59.3114 27.1497 59.3986C27.8595 59.4857 28.3308 60.0476 28.5906 60.8196C29.8389 60.845 30.2663 61.3484 30.4096 61.648ZM27.0379 60.3094C27.1919 60.3283 27.3753 60.5462 27.5236 60.9073C27.3351 60.9376 27.1446 60.9763 26.9503 61.0227C26.773 60.9307 26.5976 60.8471 26.4221 60.7721C26.6531 60.4575 26.8839 60.2905 27.0379 60.3094ZM24.6407 61.936C24.6946 61.9046 24.7496 61.8736 24.8056 61.8429C24.8565 61.6541 24.9169 61.4676 24.9863 61.284C24.9734 61.282 24.9595 61.2792 24.9457 61.2764L24.9337 61.274C24.92 61.2713 24.9066 61.2689 24.8945 61.2674C24.5443 61.2244 24.3238 61.2743 24.2576 61.3549C24.1796 61.4495 24.2114 61.7075 24.4164 62.0721L24.4583 62.0458L24.5066 62.016L24.5397 61.9959C24.573 61.9757 24.6067 61.9558 24.6407 61.936ZM24.2496 63.43C23.9624 63.7341 23.8692 63.9767 23.9221 64.0874C23.9706 64.1887 24.2107 64.2942 24.6118 64.3306C24.6019 64.2451 24.5935 64.1588 24.587 64.0717C24.5791 63.9645 24.5739 63.8562 24.5718 63.7467C24.4581 63.6418 24.3514 63.5369 24.2496 63.43ZM25.8813 65.1766C26.0294 65.5377 26.2128 65.7556 26.3669 65.7745C26.5209 65.7934 26.7516 65.6264 26.9827 65.3118C26.9444 65.2954 26.9062 65.2787 26.8678 65.2615C26.7306 65.1999 26.593 65.1331 26.4545 65.0612C26.2602 65.1075 26.0698 65.1462 25.8813 65.1766ZM27.6584 63.6602C27.1908 63.8784 26.8566 63.9854 26.5763 64.0688C26.3246 63.9203 26.0262 63.7353 25.6252 63.4105C25.6414 63.011 25.6654 62.8154 25.7464 62.4238C26.2135 62.206 26.5479 62.0987 26.8285 62.0152C27.0807 62.1642 27.3795 62.3493 27.7795 62.6735C27.7631 63.0728 27.7393 63.2685 27.6584 63.6602ZM28.4191 64.7978C28.8175 64.8592 29.0759 64.8159 29.1472 64.729C29.2251 64.6344 29.1934 64.3764 28.9884 64.0118C28.8636 64.0909 28.7347 64.1669 28.5991 64.2411C28.5474 64.4326 28.4868 64.6183 28.4191 64.7978ZM29.1052 62.602C29.0756 62.5717 29.0456 62.5414 29.0152 62.5113C28.9855 62.4819 28.9553 62.4526 28.9248 62.4234C28.8947 62.3946 28.8641 62.3659 28.8329 62.3372C28.8291 62.1417 28.8157 61.9462 28.7927 61.7512C28.8055 61.7524 28.8194 61.753 28.8336 61.7537L28.8441 61.7542L28.8658 61.7554L28.8787 61.7565L28.8859 61.7573C29.236 61.8003 29.438 61.9022 29.4826 61.9963C29.5354 62.1071 29.4422 62.3498 29.1551 62.6538C29.1386 62.6365 29.1219 62.6192 29.1052 62.602Z" fill="#F9C74F"/>
<path d="M53.6697 66.7341C53.7006 66.4826 53.9587 66.3073 54.2461 66.3426C54.5335 66.3779 54.7415 66.6105 54.7107 66.8619C54.6798 67.1134 54.4216 67.2887 54.1343 67.2535C53.8468 67.2182 53.6388 66.9856 53.6697 66.7341Z" fill="#F9C74F"/>
<path fill-rule="evenodd" clip-rule="evenodd" d="M57.2648 67.1755C58.0134 66.4745 58.1123 65.8549 57.8974 65.4041C57.7541 65.1045 57.3267 64.6011 56.0784 64.5757C55.8186 63.8037 55.3473 63.2418 54.6375 63.1547C53.9277 63.0675 53.3345 63.4987 52.8956 64.1849C51.6793 63.9087 51.1417 64.2926 50.9303 64.5486C50.6125 64.9343 50.5587 65.5589 51.1155 66.4205C50.3669 67.1216 50.2681 67.7412 50.483 68.192C50.8643 68.9903 52.0462 69.015 52.2974 69.0202L52.3019 69.0204C52.5617 69.7922 53.033 70.3542 53.7428 70.4414C54.4526 70.5286 55.046 70.0972 55.4847 69.4111L55.4891 69.4122C55.734 69.4678 56.8867 69.7298 57.45 69.0474C57.7678 68.6617 57.8218 68.0372 57.2648 67.1755ZM51.4099 67.8435C51.357 67.7328 51.4502 67.4902 51.7374 67.1861C51.7961 67.2477 51.8564 67.3087 51.9188 67.3694C51.9646 67.4139 52.0115 67.4584 52.0596 67.5028C52.0635 67.7013 52.0774 67.8961 52.0996 68.0867C51.6985 68.0503 51.4584 67.9448 51.4099 67.8435ZM51.9042 65.8282C51.9616 65.7919 52.0199 65.7562 52.0792 65.721C52.1489 65.6796 52.2202 65.639 52.2934 65.5989C52.3443 65.4102 52.4047 65.2237 52.4741 65.0401L52.4621 65.038L52.4533 65.0364L52.4336 65.0325C52.4223 65.0303 52.4109 65.028 52.4002 65.0262C52.394 65.0251 52.388 65.0242 52.3823 65.0235C52.0321 64.9805 51.8116 65.0304 51.7454 65.111C51.6674 65.2056 51.6992 65.4636 51.9042 65.8282ZM54.5257 64.0655C54.6797 64.0844 54.8631 64.3022 55.0114 64.6634C54.8229 64.6937 54.6324 64.7324 54.4381 64.7788L54.401 64.7596L54.3437 64.7305L54.2837 64.7006C54.1586 64.6388 54.0343 64.5813 53.9099 64.5282C54.1409 64.2136 54.3717 64.0466 54.5257 64.0655ZM53.3691 68.9327C53.5172 69.2938 53.7006 69.5116 53.8547 69.5305C54.0087 69.5495 54.2394 69.3825 54.4705 69.0679C54.295 68.9929 54.1195 68.9092 53.9423 68.8173C53.9017 68.8269 53.8612 68.8363 53.8208 68.8454C53.7876 68.8528 53.7545 68.86 53.7214 68.8669C53.603 68.8919 53.4856 68.9139 53.3691 68.9327ZM55.1462 67.4163C54.6786 67.6345 54.3444 67.7415 54.0641 67.8249C53.8124 67.6764 53.514 67.4914 53.113 67.1666C53.1292 66.7671 53.1532 66.5715 53.2342 66.1799C53.7013 65.9621 54.0357 65.8548 54.3163 65.7713C54.5685 65.9203 54.8673 66.1054 55.2673 66.4296C55.2509 66.8289 55.2271 67.0246 55.1462 67.4163ZM55.9069 68.5539C56.3053 68.6153 56.5637 68.572 56.635 68.4851C56.7129 68.3905 56.6812 68.1325 56.4762 67.7679C56.4537 67.7822 56.4311 67.7964 56.4083 67.8104C56.372 67.8328 56.3354 67.8549 56.2983 67.8769C56.2295 67.9176 56.1591 67.9577 56.0869 67.9972C56.0352 68.1887 55.9746 68.3744 55.9069 68.5539ZM56.6429 66.4099C56.5411 66.3031 56.4345 66.1981 56.3207 66.0933L56.3196 66.0467L56.3176 65.9845C56.3163 65.9486 56.3146 65.9127 56.3126 65.8768C56.3057 65.7536 56.295 65.6303 56.2805 65.5073L56.3003 65.5087L56.3214 65.5098L56.3417 65.5108C56.3494 65.5112 56.3568 65.5117 56.364 65.5124L56.3737 65.5134C56.7238 65.5564 56.9258 65.6583 56.9704 65.7524C57.0232 65.8632 56.93 66.1059 56.6429 66.4099Z" fill="#F9C74F"/>
<path d="M39.4989 65.0268C39.5299 64.7753 39.788 64.6 40.0753 64.6353C40.3628 64.6706 40.5708 64.9031 40.5399 65.1546C40.5091 65.4061 40.2509 65.5814 39.9635 65.5461C39.6761 65.5108 39.4681 65.2783 39.4989 65.0268Z" fill="#F9C74F"/>
<path fill-rule="evenodd" clip-rule="evenodd" d="M43.7266 63.6967C43.9416 64.1476 43.8427 64.7672 43.0941 65.4682C43.651 66.3299 43.5971 66.9544 43.2793 67.3401C42.716 68.0225 41.5633 67.7605 41.3184 67.7048L41.314 67.7038C40.8752 68.3899 40.2819 68.8212 39.5721 68.7341C38.8623 68.6469 38.3909 68.0849 38.1312 67.313L38.1267 67.3129C37.8755 67.3077 36.6935 67.283 36.3122 66.4847C36.0973 66.0338 36.1962 65.4142 36.9448 64.7132C36.3879 63.8516 36.4418 63.227 36.7596 62.8413C36.971 62.5853 37.5085 62.2014 38.7249 62.4776C39.1638 61.7914 39.757 61.3602 40.4668 61.4473C41.1766 61.5345 41.6478 62.0964 41.9077 62.8684C43.1559 62.8938 43.5833 63.3972 43.7266 63.6967ZM37.2392 66.1362C37.1862 66.0255 37.2794 65.7829 37.5667 65.4788C37.6685 65.5856 37.7752 65.6906 37.8889 65.7954C37.89 65.8519 37.8919 65.9081 37.8946 65.964C37.8968 66.0089 37.8994 66.0535 37.9025 66.098C37.9041 66.1209 37.9058 66.1437 37.9077 66.1665C37.9136 66.238 37.9206 66.309 37.9289 66.3794C37.5278 66.343 37.2877 66.2375 37.2392 66.1362ZM37.8853 64.0275C37.9624 63.9814 38.0413 63.9362 38.1227 63.8916C38.1736 63.7029 38.234 63.5164 38.3034 63.3328L38.2889 63.3303L38.2631 63.3253L38.2425 63.3212C38.2316 63.3192 38.2212 63.3174 38.2115 63.3162C37.8613 63.2732 37.6409 63.3231 37.5747 63.4037C37.4967 63.4983 37.5284 63.7563 37.7334 64.1209C37.7671 64.0996 37.8011 64.0785 37.8355 64.0576L37.8853 64.0275ZM40.3549 62.3582C40.509 62.3771 40.6924 62.5949 40.8406 62.9561C40.6521 62.9864 40.4616 63.0251 40.2674 63.0715C40.0901 62.9795 39.9147 62.8958 39.7391 62.8209C39.9702 62.5063 40.201 62.3393 40.3549 62.3582ZM39.1983 67.2253C39.3465 67.5865 39.5299 67.8043 39.6839 67.8232C39.838 67.8422 40.0687 67.6752 40.2998 67.3606C40.203 67.3192 40.1062 67.2752 40.0091 67.2287C39.9302 67.1908 39.8511 67.1512 39.7716 67.1099C39.5773 67.1563 39.3868 67.195 39.1983 67.2253ZM40.9754 65.709C40.5078 65.9272 40.1737 66.0342 39.8933 66.1175C39.6417 65.969 39.3432 65.784 38.9423 65.4593C38.9585 65.0598 38.9825 64.8641 39.0634 64.4726C39.5305 64.2547 39.865 64.1475 40.1455 64.064C40.3978 64.213 40.6966 64.3981 41.0966 64.7223C41.0802 65.1216 41.0564 65.3173 40.9754 65.709ZM41.7362 66.8466C42.1345 66.908 42.393 66.8646 42.4642 66.7778C42.5422 66.6832 42.5105 66.4252 42.3054 66.0606C42.197 66.1293 42.0855 66.1957 41.9691 66.2606L41.9162 66.2899C41.8644 66.4813 41.8038 66.667 41.7362 66.8466ZM42.2898 64.5184L42.2464 64.4765L42.2162 64.4478L42.1768 64.4108L42.15 64.386C42.1476 64.267 42.1418 64.1479 42.1324 64.029C42.1263 63.9526 42.1188 63.8763 42.1098 63.8C42.1222 63.8011 42.1358 63.8018 42.1494 63.8024L42.1509 63.8025L42.1586 63.8028C42.1741 63.8036 42.1895 63.8045 42.203 63.8061C42.553 63.8491 42.755 63.951 42.7997 64.0451C42.8525 64.1559 42.7593 64.3985 42.4722 64.7026C42.4203 64.6482 42.3671 64.5942 42.3124 64.5405L42.2898 64.5184Z" fill="#F9C74F"/>
<path fill-rule="evenodd" clip-rule="evenodd" d="M32.3195 23.9232C32.6787 24.0194 33.0458 23.8716 33.2447 23.5813C34.3244 24.2319 34.8911 25.5398 34.5486 26.8182C34.1337 28.3666 32.5421 29.2855 30.9938 28.8706C29.4455 28.4557 28.5266 26.8642 28.9414 25.3158C29.284 24.0374 30.4287 23.1881 31.6891 23.1644C31.7162 23.5153 31.9602 23.8269 32.3195 23.9232ZM33.0643 26.4206C32.8691 27.1492 32.1201 27.5816 31.3914 27.3864C30.6628 27.1911 30.2304 26.4422 30.4257 25.7135C30.6209 24.9849 31.3699 24.5525 32.0985 24.7477C32.8272 24.943 33.2596 25.6919 33.0643 26.4206Z" fill="#F9C74F"/>
<path fill-rule="evenodd" clip-rule="evenodd" d="M22.2656 5C21.707 5 21.3822 5.64164 21.7081 6.09538C22.8719 7.71566 25.0072 10.8243 26.1117 13.2805L28.2753 20.4694C26.6221 21.4513 25.5141 23.2548 25.5141 25.3171C25.5141 25.8404 25.5855 26.3471 25.719 26.828L17.6706 33.1517C17.2771 33.2522 16.9775 33.6089 16.9775 34.0442V67.6314C16.9775 68.0885 17.313 68.4764 17.7653 68.5424L61.955 74.9902C62.5105 75.0712 63.0085 74.6405 63.0085 74.0792V40.6562C63.0511 40.4089 62.9962 40.1438 62.816 39.9287C62.7837 39.887 62.748 39.8481 62.709 39.8125C62.6556 39.7636 62.5962 39.7208 62.532 39.6855L35.6779 19.8629C35.3446 19.6169 34.8881 19.6237 34.5623 19.8796L33.9004 20.3997C33.0865 19.9432 32.1478 19.6829 31.1483 19.6829C30.8118 19.6829 30.4822 19.7124 30.1619 19.769C29.6129 18.0468 28.6646 15.2391 27.7336 13.2805C26.3349 10.3376 23.5721 6.35773 22.8103 5.27923C22.6849 5.10175 22.4829 5 22.2656 5ZM20.855 38.0913C20.3406 38.0174 19.88 38.4165 19.88 38.9363V46.6183C19.88 47.0429 20.192 47.4029 20.6123 47.4633L59.1976 53.0063C59.7121 53.0802 60.1727 52.681 60.1727 52.1613V44.4793C60.1727 44.0547 59.8606 43.6947 59.4404 43.6343L20.855 38.0913ZM19.88 58.229C19.88 57.7092 20.3406 57.3101 20.855 57.384L59.4404 62.927C59.8606 62.9873 60.1727 63.3474 60.1727 63.7719V71.4539C60.1727 71.9737 59.7121 72.3728 59.1976 72.2989L20.6123 66.756C20.192 66.6956 19.88 66.3355 19.88 65.911V58.229ZM35.7238 22.0693C35.4988 21.9031 35.2131 21.8614 34.9577 21.9427C36.1714 22.8793 36.9531 24.3483 36.9531 26C36.9531 28.8288 34.6599 31.1219 31.8312 31.1219C29.7226 31.1219 27.9116 29.8478 27.1262 28.0274L19.0263 34.3916C19.1319 34.3646 19.2449 34.3576 19.3605 34.3745L60.3361 40.3533L60.3505 40.3555L60.3681 40.3586L60.3902 40.3629L60.4088 40.3671C60.4855 40.3851 60.5579 40.4133 60.6246 40.45L35.7238 22.0693ZM33.394 23.076C34.7387 23.8161 35.4583 25.4018 35.0433 26.9508C34.5551 28.7724 32.6829 29.8534 30.8612 29.3653C29.0396 28.8772 27.9586 27.0049 28.4467 25.1833C28.8617 23.6343 30.2779 22.6208 31.8124 22.6523C32.0048 22.3381 32.3874 22.1738 32.7613 22.274C33.1353 22.3742 33.3844 22.7078 33.394 23.076Z" fill="#F9C74F"/>
<rect x="1" y="1" width="78" height="78" rx="4" stroke="#F9C74F" stroke-width="2"/>
</svg>
