<svg width="80" height="80" viewBox="0 0 80 80" fill="none" xmlns="http://www.w3.org/2000/svg">
<path d="M6.55556 15.1111C5.69651 15.1111 5 14.4147 5 13.5556V6.55556C5 5.69646 5.69651 5 6.55556 5H73.4444C74.3035 5 75 5.69646 75 6.55556V13.5556C75 14.4147 74.3035 15.1111 73.4444 15.1111H70.1389V12C70.1389 10.2818 68.7461 8.88889 67.0278 8.88889H66.25C64.5317 8.88889 63.1389 10.2818 63.1389 12V15.1111H52.25V12.3889C52.25 10.4559 50.6831 8.88889 48.75 8.88889C46.8169 8.88889 45.25 10.4559 45.25 12.3889V15.1111H34.3611V12.3889C34.3611 10.4559 32.7942 8.88889 30.8611 8.88889C28.9281 8.88889 27.3611 10.4559 27.3611 12.3889V15.1111H16.4722V12.3889C16.4722 10.4559 14.9053 8.88889 12.9722 8.88889C11.0392 8.88889 9.47222 10.4559 9.47222 12.3889V15.1111H6.55556Z" fill="#F9C74F"/>
<path d="M6.55556 64.8889C5.69651 64.8889 5 65.5854 5 66.4444V73.4444C5 74.3035 5.69651 75 6.55556 75H73.4444C74.3035 75 75 74.3035 75 73.4444V66.4444C75 65.5854 74.3035 64.8889 73.4444 64.8889H70.1389V68C70.1389 69.7182 68.7461 71.1111 67.0278 71.1111H66.25C64.5317 71.1111 63.1389 69.7182 63.1389 68V64.8889H52.25V67.6111C52.25 69.5441 50.6831 71.1111 48.75 71.1111C46.8169 71.1111 45.25 69.5441 45.25 67.6111V64.8889H34.3611V67.6111C34.3611 69.5441 32.7942 71.1111 30.8611 71.1111C28.9281 71.1111 27.3611 69.5441 27.3611 67.6111V64.8889H16.4722V67.6111C16.4722 69.5441 14.9053 71.1111 12.9722 71.1111C11.0392 71.1111 9.47222 69.5441 9.47222 67.6111V64.8889H6.55556Z" fill="#F9C74F"/>
<path d="M46.0278 12.3889C46.0278 10.8855 47.2465 9.66667 48.75 9.66667C50.2535 9.66667 51.4722 10.8855 51.4722 12.3889V22.186C50.0773 22.3409 48.5176 22.7713 46.8543 23.4522C46.593 22.8288 46.3171 22.2408 46.0278 21.6914V12.3889Z" fill="#F9C74F"/>
<path d="M40 45.4444C43.0069 45.4444 45.4444 43.0069 45.4444 40C45.4444 36.9931 43.0069 34.5556 40 34.5556C36.9931 34.5556 34.5556 36.9931 34.5556 40C34.5556 43.0069 36.9931 45.4444 40 45.4444Z" fill="#F9C74F"/>
<path d="M29.183 39.9999C29.539 40.4726 29.9101 40.9472 30.2956 41.4226C30.2838 40.952 30.2778 40.4777 30.2778 40C30.2778 39.5223 30.2838 39.0479 30.2956 38.5773C29.9101 39.0527 29.539 39.5273 29.183 39.9999Z" fill="#F9C74F"/>
<path fill-rule="evenodd" clip-rule="evenodd" d="M46.0278 25.3968V21.6914C44.3709 18.5451 42.2769 16.6667 40 16.6667C37.5411 16.6667 35.2954 18.8574 33.5833 22.4701V12.3889C33.5833 10.8855 32.3646 9.66667 30.8611 9.66667C29.3576 9.66667 28.1389 10.8855 28.1389 12.3889V22.1496C26.1807 22.0019 24.5743 22.4274 23.5009 23.5008C21.6098 25.3919 21.7296 28.9372 23.4522 33.1457C19.2583 34.9034 16.6667 37.3256 16.6667 40C16.6667 42.6744 19.2583 45.0965 23.4521 46.8543C21.7295 51.0628 21.6097 54.6081 23.5008 56.4991C24.5742 57.5726 26.1807 57.9981 28.1389 57.8503V67.6111C28.1389 69.1145 29.3576 70.3333 30.8611 70.3333C32.3646 70.3333 33.5833 69.1145 33.5833 67.6111V57.5299C35.2954 61.1426 37.5411 63.3333 40 63.3333C42.2769 63.3333 44.3709 61.4549 46.0278 58.3086V67.6111C46.0278 69.1145 47.2465 70.3333 48.75 70.3333C50.2535 70.3333 51.4722 69.1145 51.4722 67.6111V57.814C53.6068 58.051 55.3555 57.6428 56.4992 56.4991C58.3903 54.6081 58.2705 51.0628 56.5478 46.8543C60.7417 45.0966 63.3333 42.6744 63.3333 40C63.3333 37.3256 60.7417 34.9034 56.5477 33.1456C58.2703 28.9372 58.3902 25.3919 56.4991 23.5008C55.3554 22.3572 53.6067 21.949 51.4722 22.186V23.6043C50.2555 23.7436 48.8687 24.1442 47.3694 24.78C48.0337 26.6309 48.5789 28.7348 48.9767 31.0233C49.8358 31.1726 50.6688 31.3427 51.4722 31.5321V33.057C50.7496 32.8888 49.9988 32.7359 49.2231 32.5997C49.3775 33.7087 49.4982 34.8548 49.5821 36.0309C50.2479 36.799 50.8785 37.5706 51.4722 38.3411V41.6587C50.8785 42.4293 50.2479 43.2008 49.5821 43.9689C49.4982 45.1451 49.3775 46.2912 49.2231 47.4003C49.9988 47.2641 50.7496 47.1112 51.4722 46.943V48.4679C50.6688 48.6573 49.8358 48.8274 48.9767 48.9767C48.5789 51.2652 48.0337 53.3691 47.3694 55.22C48.8687 55.8558 50.2555 56.2563 51.4722 56.3956V57.814C50.0773 57.6591 48.5176 57.2286 46.8543 56.5478C46.593 57.1712 46.3171 57.7592 46.0278 58.3086V54.6031L46.0542 54.6161C46.5976 53.0167 47.053 51.2009 47.4003 49.2231C46.9488 49.286 46.4911 49.3432 46.0278 49.3947V47.8498C46.5773 47.7906 47.118 47.7234 47.6488 47.6488C47.7312 47.0628 47.8045 46.4648 47.868 45.856C47.5436 46.1972 47.2124 46.5368 46.8746 46.8746C46.5935 47.1557 46.3112 47.4322 46.0278 47.704V45.52C46.7398 44.7993 47.4215 44.0722 48.071 43.343C48.134 42.2532 48.1667 41.1368 48.1667 40C48.1667 38.8632 48.134 37.7467 48.071 36.6568C47.4215 35.9276 46.7398 35.2005 46.0278 34.4799V32.2959C46.3112 32.5677 46.5936 32.8442 46.8747 33.1253C47.2124 33.4631 47.5436 33.8027 47.868 34.1438C47.8044 33.5351 47.7312 32.9372 47.6488 32.3512C47.118 32.2766 46.5773 32.2094 46.0278 32.1502V30.6053C46.4911 30.6568 46.9488 30.7141 47.4003 30.7769C47.053 28.7991 46.5976 26.9833 46.0542 25.3838L46.0278 25.3968ZM46.0278 25.3968C44.5203 26.1418 42.9234 27.0992 41.2889 28.2455C42.1823 28.9205 43.078 29.6456 43.9691 30.4179C44.6664 30.4677 45.3531 30.5303 46.0278 30.6053V25.3968ZM46.0278 32.1502C46.0073 32.148 45.9867 32.1458 45.9662 32.1436C45.9295 32.1397 45.8929 32.1358 45.8562 32.132C45.9134 32.1864 45.9706 32.2411 46.0278 32.2959V32.1502ZM33.5833 34.8772C33.7945 34.6593 34.0085 34.442 34.2252 34.2253C35.0291 33.4214 35.8416 32.6551 36.6568 31.929C37.7466 31.866 38.8631 31.8333 40 31.8333C41.1368 31.8333 42.2533 31.866 43.3432 31.929C44.1583 32.6551 44.9709 33.4214 45.7747 34.2253C45.8595 34.31 45.9438 34.3949 46.0278 34.4799V45.52C45.9438 45.605 45.8594 45.6899 45.7746 45.7747C44.9708 46.5786 44.1582 47.3449 43.343 48.071C42.2532 48.134 41.1368 48.1667 40 48.1667C38.8632 48.1667 37.7467 48.134 36.6569 48.071C35.8418 47.3449 35.0292 46.5786 34.2253 45.7747C34.0086 45.5579 33.7946 45.3406 33.5833 45.1227V34.8772ZM33.5833 32.6724V34.8772C33.0111 35.4674 32.4593 36.0614 31.929 36.6568C31.866 37.7466 31.8333 38.8631 31.8333 40C31.8333 41.1368 31.866 42.2533 31.929 43.3431C32.4593 43.9385 33.0111 44.5325 33.5833 45.1227V47.3275C33.4303 47.1779 33.2777 47.0269 33.1254 46.8746C32.7876 46.5368 32.4564 46.1972 32.132 45.8561C32.1956 46.4648 32.2688 47.0628 32.3512 47.6488C32.7563 47.7058 33.1672 47.7584 33.5833 47.8064V49.35C33.2524 49.3106 32.9245 49.2683 32.5997 49.2231C32.8667 50.7437 33.1977 52.1686 33.5833 53.473V57.5299C33.4333 57.2133 33.2873 56.8857 33.1457 56.5478C31.3261 57.2926 29.6304 57.7378 28.1389 57.8503V56.4316C29.4458 56.3402 30.9691 55.9245 32.6306 55.22C31.9663 53.369 31.4211 51.2652 31.0233 48.9767C30.0248 48.8032 29.0614 48.6015 28.1389 48.3742V46.8503C28.9799 47.0555 29.861 47.2395 30.7769 47.4003C30.6225 46.2913 30.5018 45.1452 30.4179 43.969C29.6456 43.0779 28.9205 42.1822 28.2455 41.2888C28.2098 41.3398 28.1742 41.3907 28.1389 41.4415V38.5583C28.1742 38.6091 28.2098 38.66 28.2455 38.711C28.9205 37.8176 29.6456 36.9219 30.4179 36.0308C30.5019 34.8547 30.6225 33.7087 30.7769 32.5997C29.861 32.7605 28.9799 32.9445 28.1389 33.1497V31.6258C29.0614 31.3985 30.0248 31.1969 31.0233 31.0233C31.4211 28.7348 31.9663 26.6309 32.6306 24.78C30.9691 24.0754 29.4458 23.6597 28.1389 23.5684V22.1496C29.6304 22.2622 31.3261 22.7074 33.1457 23.4522C33.2873 23.1142 33.4333 22.7867 33.5833 22.4701V26.527C33.1977 27.8314 32.8667 29.2563 32.5997 30.7769C32.9245 30.7317 33.2524 30.6894 33.5833 30.65V32.1936C33.1672 32.2416 32.7563 32.2942 32.3512 32.3512C32.2688 32.9372 32.1956 33.5351 32.132 34.1437C32.4564 33.8027 32.7875 33.4631 33.1253 33.1253C33.2776 32.973 33.4303 32.822 33.5833 32.6724ZM33.5833 32.6724V32.1936C33.7691 32.1722 33.9559 32.1516 34.1437 32.132C33.9565 32.3101 33.7697 32.4902 33.5833 32.6724ZM33.5833 30.65V26.527C33.6993 26.1348 33.8202 25.7536 33.9458 25.3838C35.461 26.1306 37.067 27.0925 38.711 28.2455C37.8176 28.9205 36.9219 29.6456 36.0308 30.4179C35.1991 30.4773 34.3825 30.555 33.5833 30.65ZM28.1389 23.5684V31.6258C26.9471 31.9195 25.8234 32.2562 24.78 32.6306C23.263 29.0531 23.0851 26.1165 24.6008 24.6008C25.4126 23.789 26.6319 23.463 28.1389 23.5684ZM28.1389 33.1497V38.5583C27.0331 36.9675 26.1075 35.414 25.3839 33.9458C26.2427 33.654 27.1638 33.3876 28.1389 33.1497ZM28.1389 41.4415V46.8503C27.1638 46.6123 26.2426 46.3459 25.3838 46.0542C26.1074 44.5859 27.0331 43.0323 28.1389 41.4415ZM28.1389 48.3742V56.4316C26.6318 56.537 25.4125 56.211 24.6007 55.3992C23.085 53.8835 23.2629 50.9469 24.7799 47.3694C25.8233 47.7438 26.947 48.0805 28.1389 48.3742ZM33.5833 53.473V49.35C34.3825 49.445 35.1992 49.5228 36.031 49.5821C36.922 50.3544 37.8177 51.0795 38.711 51.7544C37.067 52.9074 35.461 53.8693 33.9458 54.6161C33.8202 54.2464 33.6993 53.8651 33.5833 53.473ZM33.5833 47.8064V47.3275C33.7697 47.5097 33.9566 47.6899 34.1439 47.868C33.956 47.8484 33.7691 47.8279 33.5833 47.8064ZM46.0278 47.704C45.9706 47.7589 45.9133 47.8135 45.856 47.868C45.8815 47.8654 45.9069 47.8627 45.9323 47.86C45.9642 47.8566 45.996 47.8532 46.0278 47.8498V47.704ZM46.0278 49.3947C45.353 49.4697 44.6663 49.5324 43.9689 49.5821C43.0779 50.3544 42.1822 51.0795 41.2889 51.7544C42.9234 52.9007 44.5203 53.8581 46.0278 54.6031V49.3947ZM51.4722 56.3956C53.1588 56.5887 54.5187 56.2797 55.3992 55.3992C56.915 53.8835 56.7371 50.9469 55.22 47.3694C54.0639 47.7843 52.8091 48.1528 51.4722 48.4679V56.3956ZM51.4722 46.943C52.592 46.6822 53.644 46.3844 54.6162 46.0542C53.8694 44.539 52.9075 42.9329 51.7545 41.2888C51.6613 41.4121 51.5672 41.5354 51.4722 41.6587V46.943ZM51.4722 38.3411C51.5672 38.4644 51.6613 38.5877 51.7545 38.711C52.9074 37.0669 53.8693 35.461 54.6161 33.9458C53.644 33.6155 52.592 33.3178 51.4722 33.057V38.3411ZM51.4722 31.5321C52.809 31.8472 54.0638 32.2157 55.2199 32.6306C56.7369 29.0531 56.9149 26.1165 55.3991 24.6008C54.5187 23.7203 53.1587 23.4113 51.4722 23.6043V31.5321ZM45.5512 55.9731C43.7727 55.134 41.8995 54.0319 40 52.6949C38.1005 54.0319 36.2273 55.134 34.4488 55.9731C35.9057 59.5755 37.8564 61.7778 40 61.7778C42.1436 61.7778 44.0943 59.5755 45.5512 55.9731ZM41.4225 49.7045C40.9472 50.0899 40.4726 50.4609 40 50.8169C39.5274 50.4609 39.0528 50.0899 38.5774 49.7045C39.048 49.7162 39.5223 49.7222 40 49.7222C40.4777 49.7222 40.952 49.7162 41.4225 49.7045ZM55.973 34.4488C55.134 36.2272 54.0319 38.1005 52.6949 39.9999C54.0319 41.8994 55.134 43.7727 55.9731 45.5512C59.5755 44.0942 61.7778 42.1436 61.7778 40C61.7778 37.8564 59.5755 35.9057 55.973 34.4488ZM45.5512 24.0268C43.7727 24.8659 41.8994 25.968 40 27.305C38.1005 25.968 36.2273 24.8659 34.4488 24.0269C35.9058 20.4245 37.8564 18.2222 40 18.2222C42.1436 18.2222 44.0942 20.4245 45.5512 24.0268ZM18.2222 40C18.2222 37.8564 20.4245 35.9057 24.0269 34.4488C24.866 36.2273 25.9681 38.1005 27.305 39.9999C25.968 41.8994 24.8659 43.7727 24.0268 45.5512C20.4245 44.0942 18.2222 42.1436 18.2222 40ZM41.4227 30.2956C40.9473 29.9101 40.4726 29.539 40 29.183C39.5273 29.539 39.0527 29.9101 38.5773 30.2956C39.0479 30.2838 39.5223 30.2778 40 30.2778C40.4777 30.2778 40.9521 30.2838 41.4227 30.2956Z" fill="#F9C74F"/>
<path fill-rule="evenodd" clip-rule="evenodd" d="M63.9167 12.3889C63.9167 10.8855 65.1354 9.66667 66.6389 9.66667C68.1424 9.66667 69.3611 10.8855 69.3611 12.3889V30.2778H74.2222C74.6518 30.2778 75 30.626 75 31.0556V48.9444C75 49.374 74.6518 49.7222 74.2222 49.7222H69.3611V67.6111C69.3611 69.1145 68.1424 70.3333 66.6389 70.3333C65.1354 70.3333 63.9167 69.1145 63.9167 67.6111V12.3889ZM72.4247 38.5998C73.032 38.2709 73.4444 37.6281 73.4444 36.8889C73.4444 35.815 72.5739 34.9444 71.5 34.9444C70.4261 34.9444 69.5556 35.815 69.5556 36.8889C69.5556 37.6281 69.968 38.2709 70.5753 38.5998L70.0404 43.4141C69.9892 43.8748 70.3499 44.2778 70.8134 44.2778H72.1866C72.6501 44.2778 73.0108 43.8748 72.9596 43.4141L72.4247 38.5998Z" fill="#F9C74F"/>
<path d="M10.25 12.3889C10.25 10.8855 11.4687 9.66667 12.9722 9.66667C14.4757 9.66667 15.6944 10.8855 15.6944 12.3889V67.6111C15.6944 69.1145 14.4757 70.3333 12.9722 70.3333C11.4687 70.3333 10.25 69.1145 10.25 67.6111V12.3889Z" fill="#F9C74F"/>
<path d="M49.7222 40C49.7222 39.5223 49.7162 39.0479 49.7044 38.5773C50.0899 39.0527 50.4609 39.5273 50.817 39.9999C50.4609 40.4725 50.0899 40.9471 49.7045 41.4225C49.7162 40.9519 49.7222 40.4776 49.7222 40Z" fill="#F9C74F"/>
<rect x="1" y="1" width="78" height="78" rx="4" stroke="#F9C74F" stroke-width="2"/>
</svg>
