<svg width="80" height="80" viewBox="0 0 80 80" fill="none" xmlns="http://www.w3.org/2000/svg">
<path fill-rule="evenodd" clip-rule="evenodd" d="M31.2475 21.103C31.4022 22.2712 32.3984 23.1442 33.5769 23.1442C34.7107 23.1442 35.6828 22.3346 35.8879 21.2196L37.5052 12.4281C37.9306 10.1159 36.1552 7.98413 33.8042 7.98413C31.5297 7.98413 29.775 9.98646 30.0737 12.2413L31.2475 21.103ZM36.2244 25.2285C36.2244 25.6867 36.0457 26.1105 35.7429 26.4546C35.7645 26.4351 35.7866 26.416 35.8093 26.3972C36.6345 25.7142 37.9484 25.6548 38.8585 26.2592L48.2653 32.5071C50.0609 33.6996 50.2074 35.9187 48.5796 37.2661C46.9057 38.6517 44.1342 38.478 42.7314 36.8997L35.5843 28.8582C34.9888 28.1882 34.9982 27.2874 35.5692 26.6308C35.1087 27.0498 34.4447 27.3127 33.7064 27.3127C32.3158 27.3127 31.1885 26.3796 31.1885 25.2285C31.1885 24.0774 32.3158 23.1442 33.7064 23.1442C35.0971 23.1442 36.2244 24.0774 36.2244 25.2285ZM33.603 28.3548C32.4787 28.3548 31.5453 29.2232 31.4642 30.3445L29.7415 54.1579C29.714 54.5378 29.7424 54.9108 29.8203 55.2679C27.1617 54.7124 24.389 54.8867 21.8021 55.791L15.9022 57.8535C15.4328 58.0176 14.8532 58.1122 14.2696 58.2074C12.8785 58.4343 11.4644 58.665 11.4644 59.8503C11.4644 61.5328 14.3139 60.7246 15.9022 60.1694L21.8021 58.1069C25.007 56.9865 28.4971 56.9865 31.702 58.1069L35.0514 59.2778C38.2563 60.3981 41.7464 60.3981 44.9513 59.2778L48.3008 58.1069C51.5056 56.9865 54.9958 56.9865 58.2006 58.1069L64.1006 60.1694C65.6889 60.7246 68.5384 61.5328 68.5384 59.8503C68.5384 58.665 67.1243 58.4343 65.7332 58.2074C65.1495 58.1122 64.57 58.0176 64.1006 57.8535L58.2006 55.791C54.9958 54.6707 51.5056 54.6707 48.3008 55.791L44.9513 56.9619C42.1361 57.9461 39.1008 58.0657 36.2321 57.3209C37.0773 56.5561 37.5933 55.4226 37.4995 54.1522L35.7416 30.3414C35.6589 29.2213 34.7261 28.3548 33.603 28.3548ZM39.1452 34.7998C39.0497 34.6869 39.0829 34.5312 39.2192 34.4522C39.3556 34.3731 39.5438 34.4006 39.6392 34.5135C39.7347 34.6264 39.7016 34.7821 39.5652 34.8611C39.5518 34.8689 39.537 34.8749 39.5227 34.8807L39.8454 35.9177C39.0493 36.1014 38.3491 36.5063 37.8691 37.0631L36.8022 36.4575C36.7908 36.4666 36.7788 36.4761 36.7655 36.4838C36.6291 36.5629 36.441 36.5354 36.3455 36.4225C36.25 36.3096 36.2836 36.1536 36.42 36.0746C36.5564 35.9955 36.7445 36.023 36.84 36.1359C36.8656 36.1661 36.881 36.1997 36.8887 36.2334L37.4172 36.2026C37.5291 36.1961 37.6133 36.1143 37.6029 36.0213L37.5085 35.1707C37.4217 35.1651 37.3381 35.1298 37.284 35.0659C37.1886 34.953 37.2217 34.7973 37.3581 34.7182C37.4945 34.6392 37.6826 34.6666 37.7781 34.7795C37.8322 34.8434 37.8437 34.9205 37.8204 34.99L38.7537 35.3543C38.8557 35.3942 38.9769 35.357 39.023 35.2719L39.2392 34.871C39.2028 34.8534 39.1708 34.8301 39.1452 34.7998ZM38.0019 37.1693C38.6064 36.6975 39.2948 36.3053 40.043 36.0063C40.0883 35.98 40.1513 35.9892 40.183 36.0267L40.2983 36.163C40.3301 36.2005 40.319 36.2527 40.2737 36.2789L39.8148 36.4671C39.6641 36.5289 39.5173 36.5967 39.375 36.6702C39.9198 36.4868 40.568 36.578 41.0101 36.9439C41.599 37.4313 41.599 38.2216 41.0101 38.709C40.4212 39.1965 39.4665 39.1965 38.8776 38.709C38.3183 38.2461 38.2903 37.5099 38.7934 37.0195C38.7267 37.0658 38.6614 37.1135 38.5976 37.1626L38.1327 37.5198C38.0874 37.5461 38.0244 37.5369 37.9927 37.4994L37.8774 37.3631C37.8457 37.3256 37.8568 37.2734 37.9021 37.2472L38.0019 37.1693ZM42.4131 45.692L42.8511 46.5988L43.638 48.8295C43.638 48.8295 44.2033 50.2724 44.841 50.0061C46.0251 49.7399 45.7035 48.6749 45.7035 48.6749L44.8409 46.2355L44.5804 45.6966L44.2034 45.7769C43.5915 45.9073 42.9722 45.8632 42.4131 45.692ZM45.3629 39.8126L46.341 39.003C46.7335 38.6782 47.3699 38.678 47.7624 39.0029C48.1549 39.3278 48.1549 39.8547 47.7624 40.1796L46.5631 41.1723C46.1591 41.5068 45.5489 41.6239 45.0082 41.4706L43.6377 41.0815L44.681 43.0965L46.8441 42.635C47.5118 42.4982 48.2029 42.7466 48.533 43.2372L50.075 45.6771C50.2836 46.0075 50.198 46.4008 49.8957 46.651C49.8253 46.7093 49.7431 46.7597 49.6501 46.8C49.1583 47.0129 48.551 46.8555 48.2937 46.4484L46.9552 44.3303L43.9531 44.9703C42.9777 45.1783 41.9595 44.7513 41.585 43.9772L40.4759 41.6816L39.9126 39.8878L41.0974 39.512C41.8313 39.1512 42.756 39.0727 43.6012 39.3127L45.3629 39.8126ZM15.9022 71.2854C14.3139 71.8406 11.4644 72.6488 11.4644 70.9663C11.4644 69.781 12.8785 69.5503 14.2696 69.3234C14.8532 69.2282 15.4328 69.1337 15.9022 68.9696L21.8021 66.9071C25.007 65.7867 28.4971 65.7867 31.702 66.9071L35.0514 68.078C38.2563 69.1983 41.7464 69.1983 44.9513 68.078L48.3008 66.9071C51.5056 65.7867 54.9958 65.7867 58.2006 66.9071L64.1006 68.9696C64.57 69.1337 65.1495 69.2282 65.7332 69.3234C67.1243 69.5503 68.5384 69.781 68.5384 70.9663C68.5384 72.6488 65.6889 71.8406 64.1006 71.2854L58.2006 69.2229C54.9958 68.1026 51.5056 68.1026 48.3008 69.2229L44.9513 70.3938C41.7464 71.5142 38.2563 71.5142 35.0514 70.3938L31.702 69.2229C28.4971 68.1026 25.007 68.1026 21.8021 69.2229L15.9022 71.2854ZM11.4644 65.4083C11.4644 67.0908 14.3139 66.2826 15.9022 65.7274L21.8021 63.6649C25.007 62.5445 28.4971 62.5446 31.702 63.6649L35.0514 64.8358C38.2563 65.9562 41.7465 65.9562 44.9513 64.8358L48.3008 63.6649C51.5056 62.5446 54.9958 62.5446 58.2007 63.6649L64.1006 65.7274C65.6889 66.2826 68.5384 67.0908 68.5384 65.4083C68.5384 64.223 67.1243 63.9923 65.7332 63.7654C65.1496 63.6702 64.57 63.5756 64.1006 63.4115L58.2006 61.3491C54.9958 60.2287 51.5056 60.2287 48.3008 61.3491L44.9513 62.52C41.7464 63.6403 38.2563 63.6403 35.0514 62.52L31.702 61.3491C28.4971 60.2287 25.007 60.2287 21.8021 61.3491L15.9022 63.4115C15.4328 63.5756 14.8532 63.6702 14.2696 63.7654C12.8785 63.9923 11.4644 64.223 11.4644 65.4083ZM31.7933 29.1457C32.5236 28.3924 32.4517 27.3048 31.6266 26.6218C30.8273 25.9601 29.564 25.881 28.6535 26.4355L18.9386 32.3516C17.0319 33.5127 16.8221 35.8068 18.4959 37.1924C20.1237 38.5398 22.8046 38.4185 24.2453 36.9323L31.7933 29.1457Z" fill="#F9C74F"/>
<rect x="1" y="1" width="78" height="78" rx="4" stroke="#F9C74F" stroke-width="2"/>
</svg>
