<svg width="80" height="80" viewBox="0 0 80 80" fill="none" xmlns="http://www.w3.org/2000/svg">
<path d="M27.4905 5.51767C27.3863 5.36889 27.4225 5.16367 27.5713 5.05949C27.72 4.95532 27.9253 4.9915 28.0294 5.14028C28.1336 5.28906 28.0974 5.49428 27.9486 5.59846C27.934 5.60868 27.9179 5.61665 27.9023 5.62424L28.2543 6.99088C27.3859 7.23298 26.622 7.76657 26.0984 8.50043L24.9346 7.70223C24.9221 7.7143 24.9091 7.72677 24.8945 7.73699C24.7457 7.84116 24.5405 7.80497 24.4363 7.6562C24.3322 7.50742 24.3689 7.3018 24.5177 7.19763C24.6665 7.09345 24.8717 7.12964 24.9759 7.27842C25.0038 7.31828 25.0206 7.36258 25.029 7.40688L25.6055 7.36631C25.7276 7.35782 25.8194 7.25 25.8081 7.12743L25.705 6.00646C25.6104 5.99912 25.5192 5.95253 25.4602 5.86831C25.356 5.71954 25.3922 5.51431 25.541 5.41014C25.6898 5.30596 25.895 5.34215 25.9992 5.49092C26.0581 5.57514 26.0707 5.67676 26.0453 5.76823L27.0634 6.24843C27.1747 6.30103 27.3069 6.25199 27.3571 6.1398L27.593 5.61153C27.5533 5.58829 27.5184 5.55753 27.4905 5.51767Z" fill="#F9C74F"/>
<path d="M26.2433 8.64032C26.9028 8.0186 27.6537 7.5017 28.4699 7.10763C28.5193 7.07304 28.588 7.08516 28.6226 7.13456L28.7484 7.31422C28.783 7.36362 28.7709 7.43235 28.7215 7.46694L28.2209 7.71492C28.0565 7.79637 27.8964 7.88573 27.7411 7.98263C28.3355 7.74084 29.0426 7.86107 29.5248 8.34329C30.1672 8.98567 30.1672 10.0271 29.5248 10.6695C28.8825 11.3119 27.841 11.3119 27.1986 10.6695C26.5885 10.0594 26.5579 9.08921 27.1068 8.44293C27.034 8.50391 26.9627 8.56677 26.8931 8.63146L26.386 9.10229C26.3366 9.13688 26.2678 9.12477 26.2333 9.07536L26.1075 8.89571C26.0729 8.8463 26.085 8.77757 26.1344 8.74298L26.2433 8.64032Z" fill="#F9C74F"/>
<path d="M31.0553 19.8721L31.5332 21.0672L32.3915 24.0069C32.3915 24.0069 33.0082 25.9086 33.7039 25.5577C34.9955 25.2068 34.6447 23.8032 34.6447 23.8032L33.7038 20.5884L33.4196 19.8782L33.0084 19.9841C32.3408 20.1559 31.6652 20.0977 31.0553 19.8721Z" fill="#F9C74F"/>
<path d="M34.2732 12.1239L35.3402 11.057C35.7683 10.6288 36.4626 10.6286 36.8907 11.0567C37.3189 11.4849 37.3189 12.1794 36.8907 12.6076L35.5825 13.9158C35.1417 14.3566 34.4761 14.5109 33.8863 14.3088L32.3912 13.7961L33.5293 16.4516L35.889 15.8434C36.6174 15.6631 37.3712 15.9905 37.7313 16.637L39.4135 19.8525C39.641 20.288 39.5477 20.8063 39.2179 21.1361C39.1411 21.2129 39.0515 21.2793 38.9499 21.3323C38.4134 21.6129 37.751 21.4055 37.4704 20.869L36.0102 18.0776L32.7353 18.9211C31.6713 19.1951 30.5605 18.6325 30.152 17.6123L28.9421 14.587L28.3277 12.223L29.6201 11.7277C30.4207 11.2523 31.4294 11.1488 32.3514 11.465L34.2732 12.1239Z" fill="#F9C74F"/>
<path d="M34.1171 35.5094C34.2016 34.565 34.9929 33.8412 35.9411 33.8412H36.8926C37.8606 33.8412 38.6614 34.5946 38.7204 35.5607L41.0119 73.0571C41.0772 74.1262 40.215 75.0229 39.1441 74.9996L32.5622 74.8559C31.5027 74.8328 30.6839 73.9178 30.7783 72.8621L34.1171 35.5094Z" fill="#F9C74F"/>
<path d="M36.5552 32.4678C38.0722 32.4678 39.302 31.2381 39.302 29.721C39.302 28.204 38.0722 26.9743 36.5552 26.9743C35.0382 26.9743 33.8085 28.204 33.8085 29.721C33.8085 31.2381 35.0382 32.4678 36.5552 32.4678Z" fill="#F9C74F"/>
<path d="M21.3589 47.8842C20.4907 47.6239 19.6676 47.232 18.9182 46.7222C18.8636 46.6967 18.8397 46.6311 18.8652 46.5765L18.9579 46.3777C18.9834 46.323 19.0489 46.2992 19.1036 46.3247L19.5686 46.6342C19.7214 46.7358 19.8788 46.8298 20.0404 46.9159C19.5338 46.522 19.2844 45.8495 19.4609 45.1908C19.696 44.3133 20.5979 43.7925 21.4754 44.0277C22.3529 44.2628 22.8737 45.1647 22.6386 46.0422C22.4152 46.8757 21.5903 47.3873 20.7562 47.2351C20.8454 47.2676 20.9355 47.2979 21.0263 47.3259L21.6876 47.5296C21.7423 47.5551 21.7661 47.6207 21.7407 47.6753L21.648 47.8741C21.6225 47.9288 21.5569 47.9526 21.5022 47.9271L21.3589 47.8842Z" fill="#F9C74F"/>
<path d="M18.031 48.3654C17.9542 48.53 17.7584 48.6013 17.5938 48.5245C17.4292 48.4478 17.3579 48.2519 17.4347 48.0873C17.5114 47.9227 17.7073 47.8515 17.8719 47.9282C17.888 47.9357 17.903 47.9458 17.9174 47.9555L18.9249 46.9673C19.5688 47.5983 20.4128 47.993 21.3102 48.0796L21.2008 49.4866C21.2175 49.4913 21.2348 49.4964 21.251 49.5039C21.4156 49.5807 21.4868 49.7765 21.4101 49.9411C21.3333 50.1057 21.1369 50.1767 20.9723 50.0999C20.8077 50.0232 20.7364 49.8273 20.8132 49.6627C20.8337 49.6186 20.8637 49.5819 20.8978 49.5525L20.5744 49.0735C20.5061 48.972 20.3668 48.9464 20.2663 49.0175L19.347 49.6672C19.388 49.7529 19.3932 49.8552 19.3498 49.9483C19.273 50.1129 19.0772 50.1842 18.9126 50.1074C18.748 50.0307 18.6767 49.8349 18.7535 49.6703C18.7969 49.5771 18.8786 49.5154 18.9706 49.4917L18.8774 48.3699C18.8673 48.2472 18.7587 48.1572 18.6364 48.1698L18.061 48.2297C18.0607 48.2757 18.0516 48.3213 18.031 48.3654Z" fill="#F9C74F"/>
<path d="M29.476 37.0895L28.6799 38.1009C28.5703 37.4599 28.2829 36.8458 27.8003 36.3535L27.503 36.0504L27.976 35.4491L30.2896 33.0269C30.2896 33.0269 31.3297 32.0213 32.2794 32.9644C32.9312 33.3915 31.5927 34.8763 31.5927 34.8763L29.476 37.0895Z" fill="#F9C74F"/>
<path d="M20.3608 39.1882L18.9033 38.7977C18.3184 38.641 17.9711 38.0399 18.1278 37.455C18.2846 36.8701 18.886 36.5229 19.4709 36.6796L21.258 37.1584C21.8601 37.3198 22.3266 37.8191 22.4465 38.4309L22.75 39.982L24.4807 37.6686L22.7741 35.9292C22.2538 35.3885 22.1604 34.572 22.5402 33.9369L24.4838 30.8723C24.7472 30.4576 25.2427 30.2792 25.6932 30.3999C25.7981 30.428 25.9005 30.4725 25.9972 30.5339C26.5084 30.8582 26.66 31.5356 26.3357 32.0469L24.6483 34.7072L27.0163 37.1216C27.7856 37.906 27.8537 39.1493 27.1745 40.0132L25.1595 42.5736L23.4194 44.2877L22.3442 43.4161C21.5322 42.9604 20.9382 42.1386 20.7511 41.182L20.3608 39.1882Z" fill="#F9C74F"/>
<path d="M59.4468 32.035C59.6555 32.917 59.7277 33.8258 59.6608 34.7297C59.6661 34.7897 59.6212 34.8432 59.5611 34.8484L59.3427 34.8676C59.2826 34.8728 59.2291 34.828 59.2239 34.7679L59.2594 34.2104C59.2711 34.0273 59.2737 33.8439 59.2675 33.661C59.1797 34.2966 58.722 34.8489 58.0633 35.0254C57.1857 35.2606 56.2838 34.7398 56.0487 33.8623C55.8136 32.9848 56.3343 32.0829 57.2118 31.8477C58.0453 31.6244 58.9008 32.083 59.186 32.8815C59.1696 32.788 59.1508 32.6948 59.1296 32.6022L58.9754 31.9276C58.9701 31.8675 59.015 31.814 59.0751 31.8088L59.2935 31.7897C59.3536 31.7844 59.4071 31.8293 59.4123 31.8894L59.4468 32.035Z" fill="#F9C74F"/>
<path d="M61.5275 34.6764C61.7084 34.6606 61.8681 34.7945 61.8839 34.9755C61.8997 35.1564 61.7658 35.316 61.5848 35.3319C61.4039 35.3477 61.2443 35.2137 61.2285 35.0328C61.2269 35.0151 61.2281 34.9971 61.2293 34.9798L59.8698 34.6013C60.0943 33.7282 60.0141 32.7999 59.6404 31.9795L60.9136 31.3707C60.9093 31.3539 60.9051 31.3363 60.9035 31.3186C60.8877 31.1377 61.0216 30.978 61.2026 30.9622C61.3835 30.9464 61.5432 31.081 61.559 31.2619C61.5748 31.4429 61.4409 31.6025 61.26 31.6183C61.2115 31.6226 61.1647 31.615 61.1221 31.6001L60.869 32.1197C60.8153 32.2296 60.8628 32.3631 60.9746 32.4145L61.9969 32.8858C62.0506 32.8075 62.1365 32.7518 62.239 32.7428C62.4199 32.727 62.5795 32.861 62.5954 33.0419C62.6112 33.2228 62.4772 33.3825 62.2963 33.3983C62.1939 33.4073 62.0996 33.3673 62.0331 33.2995L61.1082 33.9412C61.007 34.0113 60.9834 34.1502 61.0554 34.2499L61.3949 34.7183C61.4349 34.6955 61.479 34.6807 61.5275 34.6764Z" fill="#F9C74F"/>
<path d="M46.0398 30.4027L47.3137 30.5864C46.8134 31.0018 46.4253 31.5578 46.2403 32.2218L46.1264 32.6309L45.3692 32.5219L42.1146 31.7294C42.1146 31.7294 40.7237 31.3315 41.0656 30.0374C41.1096 29.2594 43.0648 29.6762 43.0648 29.6762L46.0398 30.4027Z" fill="#F9C74F"/>
<path d="M52.415 37.2474L52.8055 38.7048C52.9622 39.2897 52.6153 39.891 52.0304 40.0477C51.4455 40.2045 50.8441 39.8572 50.6874 39.2723L50.2085 37.4852C50.0472 36.8831 50.2463 36.2295 50.7162 35.8198L51.9078 34.7813L49.039 34.4392L48.3859 36.7869C48.1778 37.5078 47.5174 37.997 46.7774 37.9856L43.1517 37.8346C42.6608 37.8139 42.2586 37.474 42.1378 37.0235C42.1097 36.9186 42.0971 36.8077 42.1019 36.6933C42.1271 36.0884 42.638 35.6183 43.2429 35.6436L46.3905 35.7747L47.2974 32.5169C47.5921 31.4584 48.6347 30.7777 49.7225 30.934L52.9474 31.3989L55.3019 32.0488L55.0846 33.4157C55.0961 34.3468 54.6813 35.2721 53.9464 35.9125L52.415 37.2474Z" fill="#F9C74F"/>
<rect x="1" y="1" width="78" height="78" rx="4" stroke="#F9C74F" stroke-width="2"/>
</svg>
