<svg width="25" height="26" viewBox="0 0 25 26" fill="none" xmlns="http://www.w3.org/2000/svg">
<path fill-rule="evenodd" clip-rule="evenodd" d="M3.125 0H21.875C23.5986 0 25 1.40137 25 3.125V17.1875C25 18.9111 23.5986 20.3125 21.875 20.3125H14.8438L8.74512 24.8877C8.35938 25.1709 7.8125 24.8926 7.8125 24.4141V20.3125H3.125C1.40137 20.3125 0 18.9111 0 17.1875V3.125C0 1.40137 1.40137 0 3.125 0ZM3.39062 13.2857H3.78125V10.4643H3.39062C3.17488 10.4643 3 10.2894 3 10.0737V9.14062C3 8.92488 3.17488 8.75 3.39062 8.75H5.57812C5.79387 8.75 5.96875 8.92488 5.96875 9.14062V13.2857H6.35938C6.57512 13.2857 6.75 13.4606 6.75 13.6763V14.6094C6.75 14.8251 6.57512 15 6.35938 15H3.39062C3.17488 15 3 14.8251 3 14.6094V13.6763C3 13.4606 3.17488 13.2857 3.39062 13.2857ZM4.875 5C4.09834 5 3.46875 5.62959 3.46875 6.40625C3.46875 7.18291 4.09834 7.8125 4.875 7.8125C5.65166 7.8125 6.28125 7.18291 6.28125 6.40625C6.28125 5.62959 5.65164 5 4.875 5ZM11.1538 5C10.9256 5 10.7026 5.06767 10.5128 5.19446C10.3231 5.32124 10.1752 5.50145 10.0878 5.71229C10.0005 5.92313 9.97765 6.15513 10.0222 6.37895C10.0667 6.60277 10.1766 6.80837 10.338 6.96974C10.4993 7.13111 10.7049 7.241 10.9287 7.28552C11.1526 7.33004 11.3846 7.30719 11.5954 7.21986C11.8062 7.13253 11.9864 6.98464 12.1132 6.79489C12.24 6.60514 12.3077 6.38206 12.3077 6.15385C12.3077 5.84783 12.1861 5.55434 11.9697 5.33795C11.7534 5.12157 11.4599 5 11.1538 5ZM11.1538 8.84615C10.9256 8.84615 10.7026 8.91383 10.5128 9.04061C10.3231 9.1674 10.1752 9.3476 10.0878 9.55844C10.0005 9.76928 9.97765 10.0013 10.0222 10.2251C10.0667 10.4489 10.1766 10.6545 10.338 10.8159C10.4993 10.9773 10.7049 11.0872 10.9287 11.1317C11.1526 11.1762 11.3846 11.1533 11.5954 11.066C11.8062 10.9787 11.9864 10.8308 12.1132 10.641C12.24 10.4513 12.3077 10.2282 12.3077 10C12.3077 9.69398 12.1861 9.4005 11.9697 9.18411C11.7534 8.96772 11.4599 8.84615 11.1538 8.84615ZM11.1538 12.6923C10.9256 12.6923 10.7026 12.76 10.5128 12.8868C10.3231 13.0136 10.1752 13.1938 10.0878 13.4046C10.0005 13.6154 9.97765 13.8474 10.0222 14.0713C10.0667 14.2951 10.1766 14.5007 10.338 14.662C10.4993 14.8234 10.7049 14.9333 10.9287 14.9778C11.1526 15.0224 11.3846 14.9995 11.5954 14.9122C11.8062 14.8248 11.9864 14.6769 12.1132 14.4872C12.24 14.2974 12.3077 14.0744 12.3077 13.8462C12.3077 13.5401 12.1861 13.2466 11.9697 13.0303C11.7534 12.8139 11.4599 12.6923 11.1538 12.6923ZM21.9231 13.0769H14.2308C14.1288 13.0769 14.0309 13.1174 13.9588 13.1896C13.8867 13.2617 13.8462 13.3595 13.8462 13.4615V14.2308C13.8462 14.3328 13.8867 14.4306 13.9588 14.5027C14.0309 14.5749 14.1288 14.6154 14.2308 14.6154H21.9231C22.0251 14.6154 22.1229 14.5749 22.195 14.5027C22.2672 14.4306 22.3077 14.3328 22.3077 14.2308V13.4615C22.3077 13.3595 22.2672 13.2617 22.195 13.1896C22.1229 13.1174 22.0251 13.0769 21.9231 13.0769ZM21.9231 5.38462H14.2308C14.1288 5.38462 14.0309 5.42514 13.9588 5.49727C13.8867 5.5694 13.8462 5.66722 13.8462 5.76923V6.53846C13.8462 6.64047 13.8867 6.7383 13.9588 6.81043C14.0309 6.88256 14.1288 6.92308 14.2308 6.92308H21.9231C22.0251 6.92308 22.1229 6.88256 22.195 6.81043C22.2672 6.7383 22.3077 6.64047 22.3077 6.53846V5.76923C22.3077 5.66722 22.2672 5.5694 22.195 5.49727C22.1229 5.42514 22.0251 5.38462 21.9231 5.38462ZM21.9231 9.23077H14.2308C14.1288 9.23077 14.0309 9.27129 13.9588 9.34342C13.8867 9.41555 13.8462 9.51338 13.8462 9.61538V10.3846C13.8462 10.4866 13.8867 10.5844 13.9588 10.6566C14.0309 10.7287 14.1288 10.7692 14.2308 10.7692H21.9231C22.0251 10.7692 22.1229 10.7287 22.195 10.6566C22.2672 10.5844 22.3077 10.4866 22.3077 10.3846V9.61538C22.3077 9.51338 22.2672 9.41555 22.195 9.34342C22.1229 9.27129 22.0251 9.23077 21.9231 9.23077Z" fill="#F9C74F"/>
</svg>